<mxfile host="app.diagrams.net" agent="Mozilla/5.0 (Windows NT 10.0; Win64; x64) AppleWebKit/537.36 (KHTML, like Gecko) Chrome/128.0.0.0 Safari/537.36" version="24.7.14" pages="3">
  <diagram name="Exercicio 1" id="BxCSS7xh3hndrMTsc40B">
    <mxGraphModel dx="-605" dy="-2249" grid="1" gridSize="10" guides="1" tooltips="1" connect="1" arrows="1" fold="1" page="1" pageScale="1" pageWidth="827" pageHeight="1169" math="0" shadow="0">
      <root>
        <mxCell id="0" />
        <mxCell id="1" parent="0" />
        <mxCell id="ojaqIJnyS7HAfu5Gs4zV-4" style="edgeStyle=orthogonalEdgeStyle;rounded=0;orthogonalLoop=1;jettySize=auto;html=1;startArrow=ERmandOne;startFill=0;endArrow=none;endFill=0;" edge="1" parent="1" source="ojaqIJnyS7HAfu5Gs4zV-1" target="ojaqIJnyS7HAfu5Gs4zV-3">
          <mxGeometry relative="1" as="geometry" />
        </mxCell>
        <mxCell id="ojaqIJnyS7HAfu5Gs4zV-1" value="Maquina" style="rounded=0;whiteSpace=wrap;html=1;fillColor=#dae8fc;strokeColor=#6c8ebf;" vertex="1" parent="1">
          <mxGeometry x="1810" y="3840" width="120" height="60" as="geometry" />
        </mxCell>
        <mxCell id="ojaqIJnyS7HAfu5Gs4zV-2" value="Serviço" style="rounded=0;whiteSpace=wrap;html=1;fillColor=#dae8fc;strokeColor=#6c8ebf;" vertex="1" parent="1">
          <mxGeometry x="2220" y="3870" width="120" height="60" as="geometry" />
        </mxCell>
        <mxCell id="ojaqIJnyS7HAfu5Gs4zV-5" style="edgeStyle=orthogonalEdgeStyle;rounded=0;orthogonalLoop=1;jettySize=auto;html=1;endArrow=ERzeroToMany;endFill=0;" edge="1" parent="1" source="ojaqIJnyS7HAfu5Gs4zV-3" target="ojaqIJnyS7HAfu5Gs4zV-2">
          <mxGeometry relative="1" as="geometry" />
        </mxCell>
        <mxCell id="ojaqIJnyS7HAfu5Gs4zV-3" value="Utiliza" style="rhombus;whiteSpace=wrap;html=1;fillColor=#d5e8d4;strokeColor=#82b366;" vertex="1" parent="1">
          <mxGeometry x="2030" y="3915" width="80" height="80" as="geometry" />
        </mxCell>
        <mxCell id="ojaqIJnyS7HAfu5Gs4zV-32" style="rounded=0;orthogonalLoop=1;jettySize=auto;html=1;endArrow=none;endFill=0;" edge="1" parent="1" source="ojaqIJnyS7HAfu5Gs4zV-6" target="ojaqIJnyS7HAfu5Gs4zV-2">
          <mxGeometry relative="1" as="geometry" />
        </mxCell>
        <mxCell id="ojaqIJnyS7HAfu5Gs4zV-6" value="maquina" style="ellipse;whiteSpace=wrap;html=1;fillColor=#fff2cc;strokeColor=#d6b656;" vertex="1" parent="1">
          <mxGeometry x="2150" y="3720" width="80" height="50" as="geometry" />
        </mxCell>
        <mxCell id="ojaqIJnyS7HAfu5Gs4zV-33" style="rounded=0;orthogonalLoop=1;jettySize=auto;html=1;endArrow=none;endFill=0;" edge="1" parent="1" source="ojaqIJnyS7HAfu5Gs4zV-7" target="ojaqIJnyS7HAfu5Gs4zV-2">
          <mxGeometry relative="1" as="geometry" />
        </mxCell>
        <mxCell id="ojaqIJnyS7HAfu5Gs4zV-7" value="duração" style="ellipse;whiteSpace=wrap;html=1;fillColor=#fff2cc;strokeColor=#d6b656;" vertex="1" parent="1">
          <mxGeometry x="2250" y="3720" width="80" height="50" as="geometry" />
        </mxCell>
        <mxCell id="ojaqIJnyS7HAfu5Gs4zV-34" style="rounded=0;orthogonalLoop=1;jettySize=auto;html=1;endArrow=none;endFill=0;" edge="1" parent="1" source="ojaqIJnyS7HAfu5Gs4zV-8" target="ojaqIJnyS7HAfu5Gs4zV-2">
          <mxGeometry relative="1" as="geometry" />
        </mxCell>
        <mxCell id="ojaqIJnyS7HAfu5Gs4zV-8" value="tipo Serviço" style="ellipse;whiteSpace=wrap;html=1;fillColor=#fff2cc;strokeColor=#d6b656;" vertex="1" parent="1">
          <mxGeometry x="2350" y="3720" width="80" height="50" as="geometry" />
        </mxCell>
        <mxCell id="ojaqIJnyS7HAfu5Gs4zV-38" style="edgeStyle=orthogonalEdgeStyle;rounded=0;orthogonalLoop=1;jettySize=auto;html=1;endArrow=ERzeroToOne;endFill=0;" edge="1" parent="1" source="ojaqIJnyS7HAfu5Gs4zV-40" target="ojaqIJnyS7HAfu5Gs4zV-2">
          <mxGeometry relative="1" as="geometry" />
        </mxCell>
        <mxCell id="ojaqIJnyS7HAfu5Gs4zV-9" value="Tipo Serviço" style="rounded=0;whiteSpace=wrap;html=1;fillColor=#dae8fc;strokeColor=#6c8ebf;" vertex="1" parent="1">
          <mxGeometry x="2240" y="4290" width="120" height="60" as="geometry" />
        </mxCell>
        <mxCell id="ojaqIJnyS7HAfu5Gs4zV-44" style="rounded=0;orthogonalLoop=1;jettySize=auto;html=1;endArrow=none;endFill=0;" edge="1" parent="1" source="ojaqIJnyS7HAfu5Gs4zV-10" target="ojaqIJnyS7HAfu5Gs4zV-9">
          <mxGeometry relative="1" as="geometry" />
        </mxCell>
        <mxCell id="ojaqIJnyS7HAfu5Gs4zV-10" value="&lt;u&gt;id&lt;/u&gt;" style="ellipse;whiteSpace=wrap;html=1;fillColor=#fff2cc;strokeColor=#d6b656;" vertex="1" parent="1">
          <mxGeometry x="2380" y="4230" width="80" height="50" as="geometry" />
        </mxCell>
        <mxCell id="ojaqIJnyS7HAfu5Gs4zV-45" style="rounded=0;orthogonalLoop=1;jettySize=auto;html=1;endArrow=none;endFill=0;" edge="1" parent="1" source="ojaqIJnyS7HAfu5Gs4zV-11" target="ojaqIJnyS7HAfu5Gs4zV-9">
          <mxGeometry relative="1" as="geometry" />
        </mxCell>
        <mxCell id="ojaqIJnyS7HAfu5Gs4zV-11" value="nome" style="ellipse;whiteSpace=wrap;html=1;fillColor=#fff2cc;strokeColor=#d6b656;" vertex="1" parent="1">
          <mxGeometry x="2380" y="4310" width="80" height="50" as="geometry" />
        </mxCell>
        <mxCell id="ojaqIJnyS7HAfu5Gs4zV-35" style="rounded=0;orthogonalLoop=1;jettySize=auto;html=1;endArrow=none;endFill=0;" edge="1" parent="1" source="ojaqIJnyS7HAfu5Gs4zV-12" target="ojaqIJnyS7HAfu5Gs4zV-2">
          <mxGeometry relative="1" as="geometry" />
        </mxCell>
        <mxCell id="ojaqIJnyS7HAfu5Gs4zV-12" value="valor" style="ellipse;whiteSpace=wrap;html=1;fillColor=#fff2cc;strokeColor=#d6b656;" vertex="1" parent="1">
          <mxGeometry x="2360" y="3790" width="80" height="50" as="geometry" />
        </mxCell>
        <mxCell id="ojaqIJnyS7HAfu5Gs4zV-41" style="edgeStyle=orthogonalEdgeStyle;rounded=0;orthogonalLoop=1;jettySize=auto;html=1;endArrow=ERzeroToMany;endFill=0;" edge="1" parent="1" source="ojaqIJnyS7HAfu5Gs4zV-43" target="ojaqIJnyS7HAfu5Gs4zV-2">
          <mxGeometry relative="1" as="geometry">
            <Array as="points">
              <mxPoint x="2260" y="4170" />
            </Array>
          </mxGeometry>
        </mxCell>
        <mxCell id="ojaqIJnyS7HAfu5Gs4zV-14" value="Client" style="rounded=0;whiteSpace=wrap;html=1;fillColor=#dae8fc;strokeColor=#6c8ebf;" vertex="1" parent="1">
          <mxGeometry x="2030" y="4290" width="120" height="60" as="geometry" />
        </mxCell>
        <mxCell id="ojaqIJnyS7HAfu5Gs4zV-31" style="rounded=0;orthogonalLoop=1;jettySize=auto;html=1;endArrow=none;endFill=0;" edge="1" parent="1" source="ojaqIJnyS7HAfu5Gs4zV-15" target="ojaqIJnyS7HAfu5Gs4zV-2">
          <mxGeometry relative="1" as="geometry" />
        </mxCell>
        <mxCell id="ojaqIJnyS7HAfu5Gs4zV-15" value="timestamp" style="ellipse;whiteSpace=wrap;html=1;fillColor=#fff2cc;strokeColor=#d6b656;" vertex="1" parent="1">
          <mxGeometry x="2130" y="3800" width="80" height="50" as="geometry" />
        </mxCell>
        <mxCell id="ojaqIJnyS7HAfu5Gs4zV-30" style="rounded=0;orthogonalLoop=1;jettySize=auto;html=1;endArrow=none;endFill=0;" edge="1" parent="1" source="ojaqIJnyS7HAfu5Gs4zV-17" target="ojaqIJnyS7HAfu5Gs4zV-1">
          <mxGeometry relative="1" as="geometry" />
        </mxCell>
        <mxCell id="ojaqIJnyS7HAfu5Gs4zV-17" value="data&lt;div&gt;Manutençõ&lt;/div&gt;" style="ellipse;whiteSpace=wrap;html=1;fillColor=#fff2cc;strokeColor=#d6b656;" vertex="1" parent="1">
          <mxGeometry x="1880" y="3740" width="80" height="50" as="geometry" />
        </mxCell>
        <mxCell id="ojaqIJnyS7HAfu5Gs4zV-29" style="rounded=0;orthogonalLoop=1;jettySize=auto;html=1;endArrow=none;endFill=0;" edge="1" parent="1" source="ojaqIJnyS7HAfu5Gs4zV-18" target="ojaqIJnyS7HAfu5Gs4zV-1">
          <mxGeometry relative="1" as="geometry" />
        </mxCell>
        <mxCell id="ojaqIJnyS7HAfu5Gs4zV-18" value="&lt;u&gt;numero&lt;/u&gt;&lt;div&gt;&lt;u&gt;Maquina&lt;/u&gt;&lt;/div&gt;" style="ellipse;whiteSpace=wrap;html=1;fillColor=#fff2cc;strokeColor=#d6b656;" vertex="1" parent="1">
          <mxGeometry x="1750" y="3760" width="80" height="50" as="geometry" />
        </mxCell>
        <mxCell id="ojaqIJnyS7HAfu5Gs4zV-28" style="rounded=0;orthogonalLoop=1;jettySize=auto;html=1;endArrow=none;endFill=0;" edge="1" parent="1" source="ojaqIJnyS7HAfu5Gs4zV-19" target="ojaqIJnyS7HAfu5Gs4zV-1">
          <mxGeometry relative="1" as="geometry" />
        </mxCell>
        <mxCell id="ojaqIJnyS7HAfu5Gs4zV-19" value="tipo Maquina" style="ellipse;whiteSpace=wrap;html=1;fillColor=#fff2cc;strokeColor=#d6b656;" vertex="1" parent="1">
          <mxGeometry x="1700" y="3850" width="80" height="50" as="geometry" />
        </mxCell>
        <mxCell id="ojaqIJnyS7HAfu5Gs4zV-25" style="edgeStyle=orthogonalEdgeStyle;rounded=0;orthogonalLoop=1;jettySize=auto;html=1;endArrow=ERzeroToOne;endFill=0;" edge="1" parent="1" source="ojaqIJnyS7HAfu5Gs4zV-27" target="ojaqIJnyS7HAfu5Gs4zV-1">
          <mxGeometry relative="1" as="geometry" />
        </mxCell>
        <mxCell id="ojaqIJnyS7HAfu5Gs4zV-20" value="Tipo Maquina" style="rounded=0;whiteSpace=wrap;html=1;fillColor=#dae8fc;strokeColor=#6c8ebf;" vertex="1" parent="1">
          <mxGeometry x="1810" y="4240" width="120" height="60" as="geometry" />
        </mxCell>
        <mxCell id="ojaqIJnyS7HAfu5Gs4zV-23" style="rounded=0;orthogonalLoop=1;jettySize=auto;html=1;endArrow=none;endFill=0;" edge="1" parent="1" source="ojaqIJnyS7HAfu5Gs4zV-21" target="ojaqIJnyS7HAfu5Gs4zV-20">
          <mxGeometry relative="1" as="geometry" />
        </mxCell>
        <mxCell id="ojaqIJnyS7HAfu5Gs4zV-21" value="&lt;u&gt;id&lt;/u&gt;" style="ellipse;whiteSpace=wrap;html=1;fillColor=#fff2cc;strokeColor=#d6b656;" vertex="1" parent="1">
          <mxGeometry x="1730" y="4140" width="80" height="50" as="geometry" />
        </mxCell>
        <mxCell id="ojaqIJnyS7HAfu5Gs4zV-24" style="rounded=0;orthogonalLoop=1;jettySize=auto;html=1;endArrow=none;endFill=0;" edge="1" parent="1" source="ojaqIJnyS7HAfu5Gs4zV-22" target="ojaqIJnyS7HAfu5Gs4zV-20">
          <mxGeometry relative="1" as="geometry" />
        </mxCell>
        <mxCell id="ojaqIJnyS7HAfu5Gs4zV-22" value="nome" style="ellipse;whiteSpace=wrap;html=1;fillColor=#fff2cc;strokeColor=#d6b656;" vertex="1" parent="1">
          <mxGeometry x="1700" y="4226" width="80" height="50" as="geometry" />
        </mxCell>
        <mxCell id="ojaqIJnyS7HAfu5Gs4zV-26" value="" style="edgeStyle=orthogonalEdgeStyle;rounded=0;orthogonalLoop=1;jettySize=auto;html=1;endArrow=none;endFill=0;startArrow=ERzeroToOne;startFill=0;" edge="1" parent="1" source="ojaqIJnyS7HAfu5Gs4zV-20" target="ojaqIJnyS7HAfu5Gs4zV-27">
          <mxGeometry relative="1" as="geometry">
            <mxPoint x="1885" y="4205" as="sourcePoint" />
            <mxPoint x="1885" y="4100" as="targetPoint" />
          </mxGeometry>
        </mxCell>
        <mxCell id="ojaqIJnyS7HAfu5Gs4zV-27" value="tem" style="rhombus;whiteSpace=wrap;html=1;fillColor=#d5e8d4;strokeColor=#82b366;" vertex="1" parent="1">
          <mxGeometry x="1830" y="4060" width="80" height="80" as="geometry" />
        </mxCell>
        <mxCell id="ojaqIJnyS7HAfu5Gs4zV-37" style="rounded=0;orthogonalLoop=1;jettySize=auto;html=1;endArrow=none;endFill=0;" edge="1" parent="1" source="ojaqIJnyS7HAfu5Gs4zV-36" target="ojaqIJnyS7HAfu5Gs4zV-2">
          <mxGeometry relative="1" as="geometry" />
        </mxCell>
        <mxCell id="ojaqIJnyS7HAfu5Gs4zV-36" value="&lt;u&gt;id&lt;/u&gt;" style="ellipse;whiteSpace=wrap;html=1;fillColor=#fff2cc;strokeColor=#d6b656;" vertex="1" parent="1">
          <mxGeometry x="2360" y="3860" width="80" height="50" as="geometry" />
        </mxCell>
        <mxCell id="ojaqIJnyS7HAfu5Gs4zV-39" value="" style="edgeStyle=orthogonalEdgeStyle;rounded=0;orthogonalLoop=1;jettySize=auto;html=1;startArrow=ERmandOne;startFill=0;endArrow=none;endFill=0;" edge="1" parent="1" source="ojaqIJnyS7HAfu5Gs4zV-9" target="ojaqIJnyS7HAfu5Gs4zV-40">
          <mxGeometry relative="1" as="geometry">
            <mxPoint x="2300" y="4220" as="sourcePoint" />
            <mxPoint x="2300" y="4100" as="targetPoint" />
          </mxGeometry>
        </mxCell>
        <mxCell id="ojaqIJnyS7HAfu5Gs4zV-40" value="tem" style="rhombus;whiteSpace=wrap;html=1;fillColor=#d5e8d4;strokeColor=#82b366;" vertex="1" parent="1">
          <mxGeometry x="2260" y="4170" width="80" height="80" as="geometry" />
        </mxCell>
        <mxCell id="ojaqIJnyS7HAfu5Gs4zV-42" value="" style="edgeStyle=orthogonalEdgeStyle;rounded=0;orthogonalLoop=1;jettySize=auto;html=1;startArrow=ERmandOne;startFill=0;endArrow=none;endFill=0;" edge="1" parent="1" source="ojaqIJnyS7HAfu5Gs4zV-14" target="ojaqIJnyS7HAfu5Gs4zV-43">
          <mxGeometry relative="1" as="geometry">
            <mxPoint x="2090" y="4290" as="sourcePoint" />
            <mxPoint x="2260" y="4100" as="targetPoint" />
            <Array as="points">
              <mxPoint x="2090" y="4170" />
            </Array>
          </mxGeometry>
        </mxCell>
        <mxCell id="ojaqIJnyS7HAfu5Gs4zV-43" value="Compra" style="rhombus;whiteSpace=wrap;html=1;fillColor=#d5e8d4;strokeColor=#82b366;" vertex="1" parent="1">
          <mxGeometry x="2110" y="4130" width="80" height="80" as="geometry" />
        </mxCell>
        <mxCell id="ojaqIJnyS7HAfu5Gs4zV-47" style="rounded=0;orthogonalLoop=1;jettySize=auto;html=1;endArrow=none;endFill=0;" edge="1" parent="1" source="ojaqIJnyS7HAfu5Gs4zV-46" target="ojaqIJnyS7HAfu5Gs4zV-2">
          <mxGeometry relative="1" as="geometry" />
        </mxCell>
        <mxCell id="ojaqIJnyS7HAfu5Gs4zV-46" value="Cliente" style="ellipse;whiteSpace=wrap;html=1;fillColor=#fff2cc;strokeColor=#d6b656;" vertex="1" parent="1">
          <mxGeometry x="2360" y="3930" width="80" height="50" as="geometry" />
        </mxCell>
        <mxCell id="ojaqIJnyS7HAfu5Gs4zV-51" style="rounded=0;orthogonalLoop=1;jettySize=auto;html=1;endArrow=none;endFill=0;" edge="1" parent="1" source="ojaqIJnyS7HAfu5Gs4zV-48" target="ojaqIJnyS7HAfu5Gs4zV-14">
          <mxGeometry relative="1" as="geometry" />
        </mxCell>
        <mxCell id="ojaqIJnyS7HAfu5Gs4zV-48" value="&lt;u&gt;NIF&lt;/u&gt;" style="ellipse;whiteSpace=wrap;html=1;fillColor=#fff2cc;strokeColor=#d6b656;" vertex="1" parent="1">
          <mxGeometry x="1960" y="4390" width="80" height="50" as="geometry" />
        </mxCell>
        <mxCell id="ojaqIJnyS7HAfu5Gs4zV-52" style="rounded=0;orthogonalLoop=1;jettySize=auto;html=1;endArrow=none;endFill=0;" edge="1" parent="1" source="ojaqIJnyS7HAfu5Gs4zV-49" target="ojaqIJnyS7HAfu5Gs4zV-14">
          <mxGeometry relative="1" as="geometry" />
        </mxCell>
        <mxCell id="ojaqIJnyS7HAfu5Gs4zV-49" value="nome" style="ellipse;whiteSpace=wrap;html=1;fillColor=#fff2cc;strokeColor=#d6b656;" vertex="1" parent="1">
          <mxGeometry x="2050" y="4390" width="80" height="50" as="geometry" />
        </mxCell>
        <mxCell id="ojaqIJnyS7HAfu5Gs4zV-53" style="rounded=0;orthogonalLoop=1;jettySize=auto;html=1;endArrow=none;endFill=0;" edge="1" parent="1" source="ojaqIJnyS7HAfu5Gs4zV-50" target="ojaqIJnyS7HAfu5Gs4zV-14">
          <mxGeometry relative="1" as="geometry" />
        </mxCell>
        <mxCell id="ojaqIJnyS7HAfu5Gs4zV-50" value="telefone" style="ellipse;whiteSpace=wrap;html=1;fillColor=#fff2cc;strokeColor=#d6b656;" vertex="1" parent="1">
          <mxGeometry x="2150" y="4390" width="80" height="50" as="geometry" />
        </mxCell>
        <mxCell id="ojaqIJnyS7HAfu5Gs4zV-57" value="&lt;h1 style=&quot;margin-top: 0px; font-size: 36px;&quot;&gt;&lt;font style=&quot;font-size: 36px;&quot;&gt;Exercício 1&lt;/font&gt;&lt;/h1&gt;&lt;div style=&quot;font-size: 36px;&quot;&gt;&lt;font style=&quot;font-size: 36px;&quot;&gt;&amp;nbsp;a)&lt;/font&gt;&lt;/div&gt;" style="text;html=1;whiteSpace=wrap;overflow=hidden;rounded=0;" vertex="1" parent="1">
          <mxGeometry x="1700" y="3550" width="380" height="120" as="geometry" />
        </mxCell>
        <mxCell id="ojaqIJnyS7HAfu5Gs4zV-58" value="Maquina" style="shape=table;startSize=30;container=1;collapsible=1;childLayout=tableLayout;fixedRows=1;rowLines=0;fontStyle=1;align=center;resizeLast=1;html=1;fillColor=#dae8fc;strokeColor=#6c8ebf;" vertex="1" parent="1">
          <mxGeometry x="2600" y="3795" width="180" height="125" as="geometry" />
        </mxCell>
        <mxCell id="ojaqIJnyS7HAfu5Gs4zV-59" value="" style="shape=tableRow;horizontal=0;startSize=0;swimlaneHead=0;swimlaneBody=0;fillColor=none;collapsible=0;dropTarget=0;points=[[0,0.5],[1,0.5]];portConstraint=eastwest;top=0;left=0;right=0;bottom=1;" vertex="1" parent="ojaqIJnyS7HAfu5Gs4zV-58">
          <mxGeometry y="30" width="180" height="30" as="geometry" />
        </mxCell>
        <mxCell id="ojaqIJnyS7HAfu5Gs4zV-60" value="PK" style="shape=partialRectangle;connectable=0;fillColor=none;top=0;left=0;bottom=0;right=0;fontStyle=1;overflow=hidden;whiteSpace=wrap;html=1;" vertex="1" parent="ojaqIJnyS7HAfu5Gs4zV-59">
          <mxGeometry width="30" height="30" as="geometry">
            <mxRectangle width="30" height="30" as="alternateBounds" />
          </mxGeometry>
        </mxCell>
        <mxCell id="ojaqIJnyS7HAfu5Gs4zV-61" value="Numero" style="shape=partialRectangle;connectable=0;fillColor=none;top=0;left=0;bottom=0;right=0;align=left;spacingLeft=6;fontStyle=5;overflow=hidden;whiteSpace=wrap;html=1;" vertex="1" parent="ojaqIJnyS7HAfu5Gs4zV-59">
          <mxGeometry x="30" width="150" height="30" as="geometry">
            <mxRectangle width="150" height="30" as="alternateBounds" />
          </mxGeometry>
        </mxCell>
        <mxCell id="ojaqIJnyS7HAfu5Gs4zV-62" value="" style="shape=tableRow;horizontal=0;startSize=0;swimlaneHead=0;swimlaneBody=0;fillColor=none;collapsible=0;dropTarget=0;points=[[0,0.5],[1,0.5]];portConstraint=eastwest;top=0;left=0;right=0;bottom=0;" vertex="1" parent="ojaqIJnyS7HAfu5Gs4zV-58">
          <mxGeometry y="60" width="180" height="30" as="geometry" />
        </mxCell>
        <mxCell id="ojaqIJnyS7HAfu5Gs4zV-63" value="" style="shape=partialRectangle;connectable=0;fillColor=none;top=0;left=0;bottom=0;right=0;editable=1;overflow=hidden;whiteSpace=wrap;html=1;" vertex="1" parent="ojaqIJnyS7HAfu5Gs4zV-62">
          <mxGeometry width="30" height="30" as="geometry">
            <mxRectangle width="30" height="30" as="alternateBounds" />
          </mxGeometry>
        </mxCell>
        <mxCell id="ojaqIJnyS7HAfu5Gs4zV-64" value="dataManutencao" style="shape=partialRectangle;connectable=0;fillColor=none;top=0;left=0;bottom=0;right=0;align=left;spacingLeft=6;overflow=hidden;whiteSpace=wrap;html=1;" vertex="1" parent="ojaqIJnyS7HAfu5Gs4zV-62">
          <mxGeometry x="30" width="150" height="30" as="geometry">
            <mxRectangle width="150" height="30" as="alternateBounds" />
          </mxGeometry>
        </mxCell>
        <mxCell id="ojaqIJnyS7HAfu5Gs4zV-65" value="" style="shape=tableRow;horizontal=0;startSize=0;swimlaneHead=0;swimlaneBody=0;fillColor=none;collapsible=0;dropTarget=0;points=[[0,0.5],[1,0.5]];portConstraint=eastwest;top=0;left=0;right=0;bottom=0;" vertex="1" parent="ojaqIJnyS7HAfu5Gs4zV-58">
          <mxGeometry y="90" width="180" height="35" as="geometry" />
        </mxCell>
        <mxCell id="ojaqIJnyS7HAfu5Gs4zV-66" value="FK" style="shape=partialRectangle;connectable=0;fillColor=none;top=0;left=0;bottom=0;right=0;editable=1;overflow=hidden;whiteSpace=wrap;html=1;" vertex="1" parent="ojaqIJnyS7HAfu5Gs4zV-65">
          <mxGeometry width="30" height="35" as="geometry">
            <mxRectangle width="30" height="35" as="alternateBounds" />
          </mxGeometry>
        </mxCell>
        <mxCell id="ojaqIJnyS7HAfu5Gs4zV-67" value="idTipoMaquina" style="shape=partialRectangle;connectable=0;fillColor=none;top=0;left=0;bottom=0;right=0;align=left;spacingLeft=6;overflow=hidden;whiteSpace=wrap;html=1;" vertex="1" parent="ojaqIJnyS7HAfu5Gs4zV-65">
          <mxGeometry x="30" width="150" height="35" as="geometry">
            <mxRectangle width="150" height="35" as="alternateBounds" />
          </mxGeometry>
        </mxCell>
        <mxCell id="ojaqIJnyS7HAfu5Gs4zV-71" value="Servico" style="shape=table;startSize=30;container=1;collapsible=1;childLayout=tableLayout;fixedRows=1;rowLines=0;fontStyle=1;align=center;resizeLast=1;html=1;fillColor=#dae8fc;strokeColor=#6c8ebf;" vertex="1" parent="1">
          <mxGeometry x="2875" y="3790" width="180" height="240" as="geometry" />
        </mxCell>
        <mxCell id="ojaqIJnyS7HAfu5Gs4zV-72" value="" style="shape=tableRow;horizontal=0;startSize=0;swimlaneHead=0;swimlaneBody=0;fillColor=none;collapsible=0;dropTarget=0;points=[[0,0.5],[1,0.5]];portConstraint=eastwest;top=0;left=0;right=0;bottom=1;" vertex="1" parent="ojaqIJnyS7HAfu5Gs4zV-71">
          <mxGeometry y="30" width="180" height="30" as="geometry" />
        </mxCell>
        <mxCell id="ojaqIJnyS7HAfu5Gs4zV-73" value="PK" style="shape=partialRectangle;connectable=0;fillColor=none;top=0;left=0;bottom=0;right=0;fontStyle=1;overflow=hidden;whiteSpace=wrap;html=1;" vertex="1" parent="ojaqIJnyS7HAfu5Gs4zV-72">
          <mxGeometry width="30" height="30" as="geometry">
            <mxRectangle width="30" height="30" as="alternateBounds" />
          </mxGeometry>
        </mxCell>
        <mxCell id="ojaqIJnyS7HAfu5Gs4zV-74" value="id" style="shape=partialRectangle;connectable=0;fillColor=none;top=0;left=0;bottom=0;right=0;align=left;spacingLeft=6;fontStyle=5;overflow=hidden;whiteSpace=wrap;html=1;" vertex="1" parent="ojaqIJnyS7HAfu5Gs4zV-72">
          <mxGeometry x="30" width="150" height="30" as="geometry">
            <mxRectangle width="150" height="30" as="alternateBounds" />
          </mxGeometry>
        </mxCell>
        <mxCell id="ojaqIJnyS7HAfu5Gs4zV-75" value="" style="shape=tableRow;horizontal=0;startSize=0;swimlaneHead=0;swimlaneBody=0;fillColor=none;collapsible=0;dropTarget=0;points=[[0,0.5],[1,0.5]];portConstraint=eastwest;top=0;left=0;right=0;bottom=0;" vertex="1" parent="ojaqIJnyS7HAfu5Gs4zV-71">
          <mxGeometry y="60" width="180" height="30" as="geometry" />
        </mxCell>
        <mxCell id="ojaqIJnyS7HAfu5Gs4zV-76" value="" style="shape=partialRectangle;connectable=0;fillColor=none;top=0;left=0;bottom=0;right=0;editable=1;overflow=hidden;whiteSpace=wrap;html=1;" vertex="1" parent="ojaqIJnyS7HAfu5Gs4zV-75">
          <mxGeometry width="30" height="30" as="geometry">
            <mxRectangle width="30" height="30" as="alternateBounds" />
          </mxGeometry>
        </mxCell>
        <mxCell id="ojaqIJnyS7HAfu5Gs4zV-77" value="timestamp" style="shape=partialRectangle;connectable=0;fillColor=none;top=0;left=0;bottom=0;right=0;align=left;spacingLeft=6;overflow=hidden;whiteSpace=wrap;html=1;" vertex="1" parent="ojaqIJnyS7HAfu5Gs4zV-75">
          <mxGeometry x="30" width="150" height="30" as="geometry">
            <mxRectangle width="150" height="30" as="alternateBounds" />
          </mxGeometry>
        </mxCell>
        <mxCell id="ojaqIJnyS7HAfu5Gs4zV-78" value="" style="shape=tableRow;horizontal=0;startSize=0;swimlaneHead=0;swimlaneBody=0;fillColor=none;collapsible=0;dropTarget=0;points=[[0,0.5],[1,0.5]];portConstraint=eastwest;top=0;left=0;right=0;bottom=0;" vertex="1" parent="ojaqIJnyS7HAfu5Gs4zV-71">
          <mxGeometry y="90" width="180" height="30" as="geometry" />
        </mxCell>
        <mxCell id="ojaqIJnyS7HAfu5Gs4zV-79" value="" style="shape=partialRectangle;connectable=0;fillColor=none;top=0;left=0;bottom=0;right=0;editable=1;overflow=hidden;whiteSpace=wrap;html=1;" vertex="1" parent="ojaqIJnyS7HAfu5Gs4zV-78">
          <mxGeometry width="30" height="30" as="geometry">
            <mxRectangle width="30" height="30" as="alternateBounds" />
          </mxGeometry>
        </mxCell>
        <mxCell id="ojaqIJnyS7HAfu5Gs4zV-80" value="duracao" style="shape=partialRectangle;connectable=0;fillColor=none;top=0;left=0;bottom=0;right=0;align=left;spacingLeft=6;overflow=hidden;whiteSpace=wrap;html=1;" vertex="1" parent="ojaqIJnyS7HAfu5Gs4zV-78">
          <mxGeometry x="30" width="150" height="30" as="geometry">
            <mxRectangle width="150" height="30" as="alternateBounds" />
          </mxGeometry>
        </mxCell>
        <mxCell id="ojaqIJnyS7HAfu5Gs4zV-81" value="" style="shape=tableRow;horizontal=0;startSize=0;swimlaneHead=0;swimlaneBody=0;fillColor=none;collapsible=0;dropTarget=0;points=[[0,0.5],[1,0.5]];portConstraint=eastwest;top=0;left=0;right=0;bottom=0;" vertex="1" parent="ojaqIJnyS7HAfu5Gs4zV-71">
          <mxGeometry y="120" width="180" height="30" as="geometry" />
        </mxCell>
        <mxCell id="ojaqIJnyS7HAfu5Gs4zV-82" value="" style="shape=partialRectangle;connectable=0;fillColor=none;top=0;left=0;bottom=0;right=0;editable=1;overflow=hidden;whiteSpace=wrap;html=1;" vertex="1" parent="ojaqIJnyS7HAfu5Gs4zV-81">
          <mxGeometry width="30" height="30" as="geometry">
            <mxRectangle width="30" height="30" as="alternateBounds" />
          </mxGeometry>
        </mxCell>
        <mxCell id="ojaqIJnyS7HAfu5Gs4zV-83" value="valor" style="shape=partialRectangle;connectable=0;fillColor=none;top=0;left=0;bottom=0;right=0;align=left;spacingLeft=6;overflow=hidden;whiteSpace=wrap;html=1;" vertex="1" parent="ojaqIJnyS7HAfu5Gs4zV-81">
          <mxGeometry x="30" width="150" height="30" as="geometry">
            <mxRectangle width="150" height="30" as="alternateBounds" />
          </mxGeometry>
        </mxCell>
        <mxCell id="ojaqIJnyS7HAfu5Gs4zV-123" value="" style="shape=tableRow;horizontal=0;startSize=0;swimlaneHead=0;swimlaneBody=0;fillColor=none;collapsible=0;dropTarget=0;points=[[0,0.5],[1,0.5]];portConstraint=eastwest;top=0;left=0;right=0;bottom=0;" vertex="1" parent="ojaqIJnyS7HAfu5Gs4zV-71">
          <mxGeometry y="150" width="180" height="30" as="geometry" />
        </mxCell>
        <mxCell id="ojaqIJnyS7HAfu5Gs4zV-124" value="FK" style="shape=partialRectangle;connectable=0;fillColor=none;top=0;left=0;bottom=0;right=0;editable=1;overflow=hidden;whiteSpace=wrap;html=1;" vertex="1" parent="ojaqIJnyS7HAfu5Gs4zV-123">
          <mxGeometry width="30" height="30" as="geometry">
            <mxRectangle width="30" height="30" as="alternateBounds" />
          </mxGeometry>
        </mxCell>
        <mxCell id="ojaqIJnyS7HAfu5Gs4zV-125" value="idMaquina" style="shape=partialRectangle;connectable=0;fillColor=none;top=0;left=0;bottom=0;right=0;align=left;spacingLeft=6;overflow=hidden;whiteSpace=wrap;html=1;" vertex="1" parent="ojaqIJnyS7HAfu5Gs4zV-123">
          <mxGeometry x="30" width="150" height="30" as="geometry">
            <mxRectangle width="150" height="30" as="alternateBounds" />
          </mxGeometry>
        </mxCell>
        <mxCell id="ojaqIJnyS7HAfu5Gs4zV-126" value="" style="shape=tableRow;horizontal=0;startSize=0;swimlaneHead=0;swimlaneBody=0;fillColor=none;collapsible=0;dropTarget=0;points=[[0,0.5],[1,0.5]];portConstraint=eastwest;top=0;left=0;right=0;bottom=0;" vertex="1" parent="ojaqIJnyS7HAfu5Gs4zV-71">
          <mxGeometry y="180" width="180" height="30" as="geometry" />
        </mxCell>
        <mxCell id="ojaqIJnyS7HAfu5Gs4zV-127" value="FK" style="shape=partialRectangle;connectable=0;fillColor=none;top=0;left=0;bottom=0;right=0;editable=1;overflow=hidden;whiteSpace=wrap;html=1;" vertex="1" parent="ojaqIJnyS7HAfu5Gs4zV-126">
          <mxGeometry width="30" height="30" as="geometry">
            <mxRectangle width="30" height="30" as="alternateBounds" />
          </mxGeometry>
        </mxCell>
        <mxCell id="ojaqIJnyS7HAfu5Gs4zV-128" value="idCliente" style="shape=partialRectangle;connectable=0;fillColor=none;top=0;left=0;bottom=0;right=0;align=left;spacingLeft=6;overflow=hidden;whiteSpace=wrap;html=1;" vertex="1" parent="ojaqIJnyS7HAfu5Gs4zV-126">
          <mxGeometry x="30" width="150" height="30" as="geometry">
            <mxRectangle width="150" height="30" as="alternateBounds" />
          </mxGeometry>
        </mxCell>
        <mxCell id="ojaqIJnyS7HAfu5Gs4zV-129" value="" style="shape=tableRow;horizontal=0;startSize=0;swimlaneHead=0;swimlaneBody=0;fillColor=none;collapsible=0;dropTarget=0;points=[[0,0.5],[1,0.5]];portConstraint=eastwest;top=0;left=0;right=0;bottom=0;" vertex="1" parent="ojaqIJnyS7HAfu5Gs4zV-71">
          <mxGeometry y="210" width="180" height="30" as="geometry" />
        </mxCell>
        <mxCell id="ojaqIJnyS7HAfu5Gs4zV-130" value="FK" style="shape=partialRectangle;connectable=0;fillColor=none;top=0;left=0;bottom=0;right=0;editable=1;overflow=hidden;whiteSpace=wrap;html=1;" vertex="1" parent="ojaqIJnyS7HAfu5Gs4zV-129">
          <mxGeometry width="30" height="30" as="geometry">
            <mxRectangle width="30" height="30" as="alternateBounds" />
          </mxGeometry>
        </mxCell>
        <mxCell id="ojaqIJnyS7HAfu5Gs4zV-131" value="idTipoServico" style="shape=partialRectangle;connectable=0;fillColor=none;top=0;left=0;bottom=0;right=0;align=left;spacingLeft=6;overflow=hidden;whiteSpace=wrap;html=1;" vertex="1" parent="ojaqIJnyS7HAfu5Gs4zV-129">
          <mxGeometry x="30" width="150" height="30" as="geometry">
            <mxRectangle width="150" height="30" as="alternateBounds" />
          </mxGeometry>
        </mxCell>
        <mxCell id="ojaqIJnyS7HAfu5Gs4zV-84" value="TipoMaquina" style="shape=table;startSize=30;container=1;collapsible=1;childLayout=tableLayout;fixedRows=1;rowLines=0;fontStyle=1;align=center;resizeLast=1;html=1;fillColor=#dae8fc;strokeColor=#6c8ebf;" vertex="1" parent="1">
          <mxGeometry x="2600" y="3975" width="180" height="95" as="geometry" />
        </mxCell>
        <mxCell id="ojaqIJnyS7HAfu5Gs4zV-85" value="" style="shape=tableRow;horizontal=0;startSize=0;swimlaneHead=0;swimlaneBody=0;fillColor=none;collapsible=0;dropTarget=0;points=[[0,0.5],[1,0.5]];portConstraint=eastwest;top=0;left=0;right=0;bottom=1;" vertex="1" parent="ojaqIJnyS7HAfu5Gs4zV-84">
          <mxGeometry y="30" width="180" height="30" as="geometry" />
        </mxCell>
        <mxCell id="ojaqIJnyS7HAfu5Gs4zV-86" value="PK" style="shape=partialRectangle;connectable=0;fillColor=none;top=0;left=0;bottom=0;right=0;fontStyle=1;overflow=hidden;whiteSpace=wrap;html=1;" vertex="1" parent="ojaqIJnyS7HAfu5Gs4zV-85">
          <mxGeometry width="30" height="30" as="geometry">
            <mxRectangle width="30" height="30" as="alternateBounds" />
          </mxGeometry>
        </mxCell>
        <mxCell id="ojaqIJnyS7HAfu5Gs4zV-87" value="id" style="shape=partialRectangle;connectable=0;fillColor=none;top=0;left=0;bottom=0;right=0;align=left;spacingLeft=6;fontStyle=5;overflow=hidden;whiteSpace=wrap;html=1;" vertex="1" parent="ojaqIJnyS7HAfu5Gs4zV-85">
          <mxGeometry x="30" width="150" height="30" as="geometry">
            <mxRectangle width="150" height="30" as="alternateBounds" />
          </mxGeometry>
        </mxCell>
        <mxCell id="ojaqIJnyS7HAfu5Gs4zV-88" value="" style="shape=tableRow;horizontal=0;startSize=0;swimlaneHead=0;swimlaneBody=0;fillColor=none;collapsible=0;dropTarget=0;points=[[0,0.5],[1,0.5]];portConstraint=eastwest;top=0;left=0;right=0;bottom=0;" vertex="1" parent="ojaqIJnyS7HAfu5Gs4zV-84">
          <mxGeometry y="60" width="180" height="35" as="geometry" />
        </mxCell>
        <mxCell id="ojaqIJnyS7HAfu5Gs4zV-89" value="" style="shape=partialRectangle;connectable=0;fillColor=none;top=0;left=0;bottom=0;right=0;editable=1;overflow=hidden;whiteSpace=wrap;html=1;" vertex="1" parent="ojaqIJnyS7HAfu5Gs4zV-88">
          <mxGeometry width="30" height="35" as="geometry">
            <mxRectangle width="30" height="35" as="alternateBounds" />
          </mxGeometry>
        </mxCell>
        <mxCell id="ojaqIJnyS7HAfu5Gs4zV-90" value="nome" style="shape=partialRectangle;connectable=0;fillColor=none;top=0;left=0;bottom=0;right=0;align=left;spacingLeft=6;overflow=hidden;whiteSpace=wrap;html=1;" vertex="1" parent="ojaqIJnyS7HAfu5Gs4zV-88">
          <mxGeometry x="30" width="150" height="35" as="geometry">
            <mxRectangle width="150" height="35" as="alternateBounds" />
          </mxGeometry>
        </mxCell>
        <mxCell id="ojaqIJnyS7HAfu5Gs4zV-97" value="TipoServico" style="shape=table;startSize=30;container=1;collapsible=1;childLayout=tableLayout;fixedRows=1;rowLines=0;fontStyle=1;align=center;resizeLast=1;html=1;fillColor=#dae8fc;strokeColor=#6c8ebf;" vertex="1" parent="1">
          <mxGeometry x="2875" y="4125" width="180" height="95" as="geometry" />
        </mxCell>
        <mxCell id="ojaqIJnyS7HAfu5Gs4zV-98" value="" style="shape=tableRow;horizontal=0;startSize=0;swimlaneHead=0;swimlaneBody=0;fillColor=none;collapsible=0;dropTarget=0;points=[[0,0.5],[1,0.5]];portConstraint=eastwest;top=0;left=0;right=0;bottom=1;" vertex="1" parent="ojaqIJnyS7HAfu5Gs4zV-97">
          <mxGeometry y="30" width="180" height="30" as="geometry" />
        </mxCell>
        <mxCell id="ojaqIJnyS7HAfu5Gs4zV-99" value="PK" style="shape=partialRectangle;connectable=0;fillColor=none;top=0;left=0;bottom=0;right=0;fontStyle=1;overflow=hidden;whiteSpace=wrap;html=1;" vertex="1" parent="ojaqIJnyS7HAfu5Gs4zV-98">
          <mxGeometry width="30" height="30" as="geometry">
            <mxRectangle width="30" height="30" as="alternateBounds" />
          </mxGeometry>
        </mxCell>
        <mxCell id="ojaqIJnyS7HAfu5Gs4zV-100" value="id" style="shape=partialRectangle;connectable=0;fillColor=none;top=0;left=0;bottom=0;right=0;align=left;spacingLeft=6;fontStyle=5;overflow=hidden;whiteSpace=wrap;html=1;" vertex="1" parent="ojaqIJnyS7HAfu5Gs4zV-98">
          <mxGeometry x="30" width="150" height="30" as="geometry">
            <mxRectangle width="150" height="30" as="alternateBounds" />
          </mxGeometry>
        </mxCell>
        <mxCell id="ojaqIJnyS7HAfu5Gs4zV-101" value="" style="shape=tableRow;horizontal=0;startSize=0;swimlaneHead=0;swimlaneBody=0;fillColor=none;collapsible=0;dropTarget=0;points=[[0,0.5],[1,0.5]];portConstraint=eastwest;top=0;left=0;right=0;bottom=0;" vertex="1" parent="ojaqIJnyS7HAfu5Gs4zV-97">
          <mxGeometry y="60" width="180" height="35" as="geometry" />
        </mxCell>
        <mxCell id="ojaqIJnyS7HAfu5Gs4zV-102" value="" style="shape=partialRectangle;connectable=0;fillColor=none;top=0;left=0;bottom=0;right=0;editable=1;overflow=hidden;whiteSpace=wrap;html=1;" vertex="1" parent="ojaqIJnyS7HAfu5Gs4zV-101">
          <mxGeometry width="30" height="35" as="geometry">
            <mxRectangle width="30" height="35" as="alternateBounds" />
          </mxGeometry>
        </mxCell>
        <mxCell id="ojaqIJnyS7HAfu5Gs4zV-103" value="nome" style="shape=partialRectangle;connectable=0;fillColor=none;top=0;left=0;bottom=0;right=0;align=left;spacingLeft=6;overflow=hidden;whiteSpace=wrap;html=1;" vertex="1" parent="ojaqIJnyS7HAfu5Gs4zV-101">
          <mxGeometry x="30" width="150" height="35" as="geometry">
            <mxRectangle width="150" height="35" as="alternateBounds" />
          </mxGeometry>
        </mxCell>
        <mxCell id="ojaqIJnyS7HAfu5Gs4zV-110" value="Cliente" style="shape=table;startSize=30;container=1;collapsible=1;childLayout=tableLayout;fixedRows=1;rowLines=0;fontStyle=1;align=center;resizeLast=1;html=1;fillColor=#dae8fc;strokeColor=#6c8ebf;" vertex="1" parent="1">
          <mxGeometry x="2600" y="4190" width="180" height="130" as="geometry" />
        </mxCell>
        <mxCell id="ojaqIJnyS7HAfu5Gs4zV-111" value="" style="shape=tableRow;horizontal=0;startSize=0;swimlaneHead=0;swimlaneBody=0;fillColor=none;collapsible=0;dropTarget=0;points=[[0,0.5],[1,0.5]];portConstraint=eastwest;top=0;left=0;right=0;bottom=1;" vertex="1" parent="ojaqIJnyS7HAfu5Gs4zV-110">
          <mxGeometry y="30" width="180" height="30" as="geometry" />
        </mxCell>
        <mxCell id="ojaqIJnyS7HAfu5Gs4zV-112" value="PK" style="shape=partialRectangle;connectable=0;fillColor=none;top=0;left=0;bottom=0;right=0;fontStyle=1;overflow=hidden;whiteSpace=wrap;html=1;" vertex="1" parent="ojaqIJnyS7HAfu5Gs4zV-111">
          <mxGeometry width="30" height="30" as="geometry">
            <mxRectangle width="30" height="30" as="alternateBounds" />
          </mxGeometry>
        </mxCell>
        <mxCell id="ojaqIJnyS7HAfu5Gs4zV-113" value="NIF" style="shape=partialRectangle;connectable=0;fillColor=none;top=0;left=0;bottom=0;right=0;align=left;spacingLeft=6;fontStyle=5;overflow=hidden;whiteSpace=wrap;html=1;" vertex="1" parent="ojaqIJnyS7HAfu5Gs4zV-111">
          <mxGeometry x="30" width="150" height="30" as="geometry">
            <mxRectangle width="150" height="30" as="alternateBounds" />
          </mxGeometry>
        </mxCell>
        <mxCell id="ojaqIJnyS7HAfu5Gs4zV-114" value="" style="shape=tableRow;horizontal=0;startSize=0;swimlaneHead=0;swimlaneBody=0;fillColor=none;collapsible=0;dropTarget=0;points=[[0,0.5],[1,0.5]];portConstraint=eastwest;top=0;left=0;right=0;bottom=0;" vertex="1" parent="ojaqIJnyS7HAfu5Gs4zV-110">
          <mxGeometry y="60" width="180" height="30" as="geometry" />
        </mxCell>
        <mxCell id="ojaqIJnyS7HAfu5Gs4zV-115" value="" style="shape=partialRectangle;connectable=0;fillColor=none;top=0;left=0;bottom=0;right=0;editable=1;overflow=hidden;whiteSpace=wrap;html=1;" vertex="1" parent="ojaqIJnyS7HAfu5Gs4zV-114">
          <mxGeometry width="30" height="30" as="geometry">
            <mxRectangle width="30" height="30" as="alternateBounds" />
          </mxGeometry>
        </mxCell>
        <mxCell id="ojaqIJnyS7HAfu5Gs4zV-116" value="nome" style="shape=partialRectangle;connectable=0;fillColor=none;top=0;left=0;bottom=0;right=0;align=left;spacingLeft=6;overflow=hidden;whiteSpace=wrap;html=1;" vertex="1" parent="ojaqIJnyS7HAfu5Gs4zV-114">
          <mxGeometry x="30" width="150" height="30" as="geometry">
            <mxRectangle width="150" height="30" as="alternateBounds" />
          </mxGeometry>
        </mxCell>
        <mxCell id="ojaqIJnyS7HAfu5Gs4zV-117" value="" style="shape=tableRow;horizontal=0;startSize=0;swimlaneHead=0;swimlaneBody=0;fillColor=none;collapsible=0;dropTarget=0;points=[[0,0.5],[1,0.5]];portConstraint=eastwest;top=0;left=0;right=0;bottom=0;" vertex="1" parent="ojaqIJnyS7HAfu5Gs4zV-110">
          <mxGeometry y="90" width="180" height="40" as="geometry" />
        </mxCell>
        <mxCell id="ojaqIJnyS7HAfu5Gs4zV-118" value="" style="shape=partialRectangle;connectable=0;fillColor=none;top=0;left=0;bottom=0;right=0;editable=1;overflow=hidden;whiteSpace=wrap;html=1;" vertex="1" parent="ojaqIJnyS7HAfu5Gs4zV-117">
          <mxGeometry width="30" height="40" as="geometry">
            <mxRectangle width="30" height="40" as="alternateBounds" />
          </mxGeometry>
        </mxCell>
        <mxCell id="ojaqIJnyS7HAfu5Gs4zV-119" value="telefone" style="shape=partialRectangle;connectable=0;fillColor=none;top=0;left=0;bottom=0;right=0;align=left;spacingLeft=6;overflow=hidden;whiteSpace=wrap;html=1;" vertex="1" parent="ojaqIJnyS7HAfu5Gs4zV-117">
          <mxGeometry x="30" width="150" height="40" as="geometry">
            <mxRectangle width="150" height="40" as="alternateBounds" />
          </mxGeometry>
        </mxCell>
        <mxCell id="ojaqIJnyS7HAfu5Gs4zV-132" style="edgeStyle=orthogonalEdgeStyle;rounded=0;orthogonalLoop=1;jettySize=auto;html=1;endArrow=ERzeroToOne;endFill=0;startArrow=ERmandOne;startFill=0;" edge="1" parent="1" source="ojaqIJnyS7HAfu5Gs4zV-98" target="ojaqIJnyS7HAfu5Gs4zV-129">
          <mxGeometry relative="1" as="geometry" />
        </mxCell>
        <mxCell id="ojaqIJnyS7HAfu5Gs4zV-133" style="edgeStyle=orthogonalEdgeStyle;rounded=0;orthogonalLoop=1;jettySize=auto;html=1;startArrow=ERmandOne;startFill=0;endArrow=ERzeroToMany;endFill=0;" edge="1" parent="1" source="ojaqIJnyS7HAfu5Gs4zV-111" target="ojaqIJnyS7HAfu5Gs4zV-126">
          <mxGeometry relative="1" as="geometry" />
        </mxCell>
        <mxCell id="ojaqIJnyS7HAfu5Gs4zV-134" style="edgeStyle=orthogonalEdgeStyle;rounded=0;orthogonalLoop=1;jettySize=auto;html=1;exitX=0;exitY=0.5;exitDx=0;exitDy=0;endArrow=ERzeroToMany;endFill=0;startArrow=ERmandOne;startFill=0;" edge="1" parent="1" source="ojaqIJnyS7HAfu5Gs4zV-85" target="ojaqIJnyS7HAfu5Gs4zV-65">
          <mxGeometry relative="1" as="geometry" />
        </mxCell>
        <mxCell id="ojaqIJnyS7HAfu5Gs4zV-135" style="edgeStyle=orthogonalEdgeStyle;rounded=0;orthogonalLoop=1;jettySize=auto;html=1;entryX=0;entryY=0.5;entryDx=0;entryDy=0;endArrow=ERzeroToMany;endFill=0;startArrow=ERmandOne;startFill=0;" edge="1" parent="1" source="ojaqIJnyS7HAfu5Gs4zV-59" target="ojaqIJnyS7HAfu5Gs4zV-123">
          <mxGeometry relative="1" as="geometry" />
        </mxCell>
        <mxCell id="ojaqIJnyS7HAfu5Gs4zV-136" value="&lt;h1 style=&quot;margin-top: 0px; font-size: 36px;&quot;&gt;&lt;font style=&quot;font-size: 36px;&quot;&gt;Exercício 1&lt;/font&gt;&lt;/h1&gt;&lt;div style=&quot;font-size: 36px;&quot;&gt;&lt;font style=&quot;font-size: 36px;&quot;&gt;&amp;nbsp;b)&lt;/font&gt;&lt;/div&gt;" style="text;html=1;whiteSpace=wrap;overflow=hidden;rounded=0;" vertex="1" parent="1">
          <mxGeometry x="2600" y="3550" width="380" height="120" as="geometry" />
        </mxCell>
      </root>
    </mxGraphModel>
  </diagram>
  <diagram name="Exercicio 2" id="GeYSZISUJxtjqwZze6eC">
    <mxGraphModel dx="-138" dy="-1689" grid="1" gridSize="10" guides="1" tooltips="1" connect="1" arrows="1" fold="1" page="1" pageScale="1" pageWidth="827" pageHeight="1169" math="0" shadow="0">
      <root>
        <mxCell id="MsreDqlK55yj84_zUPnl-0" />
        <mxCell id="MsreDqlK55yj84_zUPnl-1" parent="MsreDqlK55yj84_zUPnl-0" />
        <mxCell id="MsreDqlK55yj84_zUPnl-2" style="edgeStyle=orthogonalEdgeStyle;rounded=0;orthogonalLoop=1;jettySize=auto;html=1;endArrow=ERoneToMany;endFill=0;startArrow=ERmandOne;startFill=0;" edge="1" parent="MsreDqlK55yj84_zUPnl-1" source="MsreDqlK55yj84_zUPnl-3" target="MsreDqlK55yj84_zUPnl-6">
          <mxGeometry relative="1" as="geometry" />
        </mxCell>
        <mxCell id="MsreDqlK55yj84_zUPnl-3" value="Maquina" style="rounded=0;whiteSpace=wrap;html=1;fillColor=#dae8fc;strokeColor=#6c8ebf;" vertex="1" parent="MsreDqlK55yj84_zUPnl-1">
          <mxGeometry x="1810" y="3840" width="120" height="60" as="geometry" />
        </mxCell>
        <mxCell id="MsreDqlK55yj84_zUPnl-4" value="MapaMaquinas" style="rounded=0;whiteSpace=wrap;html=1;fillColor=#dae8fc;strokeColor=#6c8ebf;" vertex="1" parent="MsreDqlK55yj84_zUPnl-1">
          <mxGeometry x="2220" y="3870" width="120" height="60" as="geometry" />
        </mxCell>
        <mxCell id="MsreDqlK55yj84_zUPnl-5" style="edgeStyle=orthogonalEdgeStyle;rounded=0;orthogonalLoop=1;jettySize=auto;html=1;endArrow=ERmandOne;endFill=0;startArrow=ERoneToMany;startFill=0;" edge="1" parent="MsreDqlK55yj84_zUPnl-1" source="MsreDqlK55yj84_zUPnl-6" target="MsreDqlK55yj84_zUPnl-4">
          <mxGeometry relative="1" as="geometry" />
        </mxCell>
        <mxCell id="MsreDqlK55yj84_zUPnl-6" value="Utiliza" style="rhombus;whiteSpace=wrap;html=1;fillColor=#d5e8d4;strokeColor=#82b366;" vertex="1" parent="MsreDqlK55yj84_zUPnl-1">
          <mxGeometry x="2030" y="3915" width="80" height="80" as="geometry" />
        </mxCell>
        <mxCell id="MsreDqlK55yj84_zUPnl-7" style="rounded=0;orthogonalLoop=1;jettySize=auto;html=1;endArrow=none;endFill=0;" edge="1" parent="MsreDqlK55yj84_zUPnl-1" source="MsreDqlK55yj84_zUPnl-8" target="MsreDqlK55yj84_zUPnl-4">
          <mxGeometry relative="1" as="geometry" />
        </mxCell>
        <mxCell id="MsreDqlK55yj84_zUPnl-8" value="maquina" style="ellipse;whiteSpace=wrap;html=1;fillColor=#fff2cc;strokeColor=#d6b656;" vertex="1" parent="MsreDqlK55yj84_zUPnl-1">
          <mxGeometry x="2100" y="3760" width="80" height="50" as="geometry" />
        </mxCell>
        <mxCell id="MsreDqlK55yj84_zUPnl-9" style="rounded=0;orthogonalLoop=1;jettySize=auto;html=1;endArrow=none;endFill=0;" edge="1" parent="MsreDqlK55yj84_zUPnl-1" source="MsreDqlK55yj84_zUPnl-10" target="MsreDqlK55yj84_zUPnl-4">
          <mxGeometry relative="1" as="geometry" />
        </mxCell>
        <mxCell id="MsreDqlK55yj84_zUPnl-10" value="Local" style="ellipse;whiteSpace=wrap;html=1;fillColor=#fff2cc;strokeColor=#d6b656;" vertex="1" parent="MsreDqlK55yj84_zUPnl-1">
          <mxGeometry x="2190" y="3730" width="80" height="50" as="geometry" />
        </mxCell>
        <mxCell id="MsreDqlK55yj84_zUPnl-15" style="rounded=0;orthogonalLoop=1;jettySize=auto;html=1;endArrow=none;endFill=0;" edge="1" parent="MsreDqlK55yj84_zUPnl-1" source="MsreDqlK55yj84_zUPnl-16">
          <mxGeometry relative="1" as="geometry">
            <mxPoint x="2355.3846153846152" y="4290" as="targetPoint" />
          </mxGeometry>
        </mxCell>
        <mxCell id="MsreDqlK55yj84_zUPnl-17" style="rounded=0;orthogonalLoop=1;jettySize=auto;html=1;endArrow=none;endFill=0;" edge="1" parent="MsreDqlK55yj84_zUPnl-1" source="MsreDqlK55yj84_zUPnl-18">
          <mxGeometry relative="1" as="geometry">
            <mxPoint x="2360" y="4327.5" as="targetPoint" />
          </mxGeometry>
        </mxCell>
        <mxCell id="MsreDqlK55yj84_zUPnl-21" style="edgeStyle=orthogonalEdgeStyle;rounded=0;orthogonalLoop=1;jettySize=auto;html=1;startArrow=ERzeroToMany;startFill=0;endArrow=ERmandOne;endFill=0;" edge="1" parent="MsreDqlK55yj84_zUPnl-1" source="MsreDqlK55yj84_zUPnl-44" target="MsreDqlK55yj84_zUPnl-4">
          <mxGeometry relative="1" as="geometry">
            <Array as="points">
              <mxPoint x="2260" y="4170" />
            </Array>
          </mxGeometry>
        </mxCell>
        <mxCell id="HCbBBMzuI_IIogZU7T-o-18" style="edgeStyle=orthogonalEdgeStyle;rounded=0;orthogonalLoop=1;jettySize=auto;html=1;startArrow=ERzeroToMany;startFill=0;endArrow=none;endFill=0;" edge="1" parent="MsreDqlK55yj84_zUPnl-1" source="MsreDqlK55yj84_zUPnl-22" target="HCbBBMzuI_IIogZU7T-o-17">
          <mxGeometry relative="1" as="geometry" />
        </mxCell>
        <mxCell id="MsreDqlK55yj84_zUPnl-22" value="Produto" style="rounded=0;whiteSpace=wrap;html=1;fillColor=#dae8fc;strokeColor=#6c8ebf;" vertex="1" parent="MsreDqlK55yj84_zUPnl-1">
          <mxGeometry x="2030" y="4290" width="120" height="60" as="geometry" />
        </mxCell>
        <mxCell id="MsreDqlK55yj84_zUPnl-25" style="rounded=0;orthogonalLoop=1;jettySize=auto;html=1;endArrow=none;endFill=0;" edge="1" parent="MsreDqlK55yj84_zUPnl-1" source="MsreDqlK55yj84_zUPnl-26" target="MsreDqlK55yj84_zUPnl-3">
          <mxGeometry relative="1" as="geometry" />
        </mxCell>
        <mxCell id="MsreDqlK55yj84_zUPnl-26" value="data&lt;div&gt;Manutençõ&lt;/div&gt;" style="ellipse;whiteSpace=wrap;html=1;fillColor=#fff2cc;strokeColor=#d6b656;" vertex="1" parent="MsreDqlK55yj84_zUPnl-1">
          <mxGeometry x="1880" y="3740" width="80" height="50" as="geometry" />
        </mxCell>
        <mxCell id="MsreDqlK55yj84_zUPnl-27" style="rounded=0;orthogonalLoop=1;jettySize=auto;html=1;endArrow=none;endFill=0;" edge="1" parent="MsreDqlK55yj84_zUPnl-1" source="MsreDqlK55yj84_zUPnl-28" target="MsreDqlK55yj84_zUPnl-3">
          <mxGeometry relative="1" as="geometry" />
        </mxCell>
        <mxCell id="MsreDqlK55yj84_zUPnl-28" value="&lt;u&gt;codigo&lt;/u&gt;" style="ellipse;whiteSpace=wrap;html=1;fillColor=#fff2cc;strokeColor=#d6b656;" vertex="1" parent="MsreDqlK55yj84_zUPnl-1">
          <mxGeometry x="1750" y="3760" width="80" height="50" as="geometry" />
        </mxCell>
        <mxCell id="MsreDqlK55yj84_zUPnl-29" style="rounded=0;orthogonalLoop=1;jettySize=auto;html=1;endArrow=none;endFill=0;" edge="1" parent="MsreDqlK55yj84_zUPnl-1" source="MsreDqlK55yj84_zUPnl-30" target="MsreDqlK55yj84_zUPnl-3">
          <mxGeometry relative="1" as="geometry" />
        </mxCell>
        <mxCell id="MsreDqlK55yj84_zUPnl-30" value="tipo Maquina" style="ellipse;whiteSpace=wrap;html=1;fillColor=#fff2cc;strokeColor=#d6b656;" vertex="1" parent="MsreDqlK55yj84_zUPnl-1">
          <mxGeometry x="1700" y="3850" width="80" height="50" as="geometry" />
        </mxCell>
        <mxCell id="MsreDqlK55yj84_zUPnl-31" style="edgeStyle=orthogonalEdgeStyle;rounded=0;orthogonalLoop=1;jettySize=auto;html=1;endArrow=ERzeroToMany;endFill=0;" edge="1" parent="MsreDqlK55yj84_zUPnl-1" source="MsreDqlK55yj84_zUPnl-38" target="MsreDqlK55yj84_zUPnl-3">
          <mxGeometry relative="1" as="geometry" />
        </mxCell>
        <mxCell id="MsreDqlK55yj84_zUPnl-32" value="Tipo Maquina" style="rounded=0;whiteSpace=wrap;html=1;fillColor=#dae8fc;strokeColor=#6c8ebf;" vertex="1" parent="MsreDqlK55yj84_zUPnl-1">
          <mxGeometry x="1810" y="4240" width="120" height="60" as="geometry" />
        </mxCell>
        <mxCell id="MsreDqlK55yj84_zUPnl-33" style="rounded=0;orthogonalLoop=1;jettySize=auto;html=1;endArrow=none;endFill=0;" edge="1" parent="MsreDqlK55yj84_zUPnl-1" source="MsreDqlK55yj84_zUPnl-34" target="MsreDqlK55yj84_zUPnl-32">
          <mxGeometry relative="1" as="geometry" />
        </mxCell>
        <mxCell id="MsreDqlK55yj84_zUPnl-34" value="&lt;u&gt;id&lt;/u&gt;" style="ellipse;whiteSpace=wrap;html=1;fillColor=#fff2cc;strokeColor=#d6b656;" vertex="1" parent="MsreDqlK55yj84_zUPnl-1">
          <mxGeometry x="1730" y="4140" width="80" height="50" as="geometry" />
        </mxCell>
        <mxCell id="MsreDqlK55yj84_zUPnl-35" style="rounded=0;orthogonalLoop=1;jettySize=auto;html=1;endArrow=none;endFill=0;" edge="1" parent="MsreDqlK55yj84_zUPnl-1" source="MsreDqlK55yj84_zUPnl-36" target="MsreDqlK55yj84_zUPnl-32">
          <mxGeometry relative="1" as="geometry" />
        </mxCell>
        <mxCell id="MsreDqlK55yj84_zUPnl-36" value="nome" style="ellipse;whiteSpace=wrap;html=1;fillColor=#fff2cc;strokeColor=#d6b656;" vertex="1" parent="MsreDqlK55yj84_zUPnl-1">
          <mxGeometry x="1700" y="4226" width="80" height="50" as="geometry" />
        </mxCell>
        <mxCell id="MsreDqlK55yj84_zUPnl-37" value="" style="edgeStyle=orthogonalEdgeStyle;rounded=0;orthogonalLoop=1;jettySize=auto;html=1;endArrow=none;endFill=0;startArrow=ERmandOne;startFill=0;" edge="1" parent="MsreDqlK55yj84_zUPnl-1" source="MsreDqlK55yj84_zUPnl-32" target="MsreDqlK55yj84_zUPnl-38">
          <mxGeometry relative="1" as="geometry">
            <mxPoint x="1885" y="4205" as="sourcePoint" />
            <mxPoint x="1885" y="4100" as="targetPoint" />
          </mxGeometry>
        </mxCell>
        <mxCell id="MsreDqlK55yj84_zUPnl-38" value="tem" style="rhombus;whiteSpace=wrap;html=1;fillColor=#d5e8d4;strokeColor=#82b366;" vertex="1" parent="MsreDqlK55yj84_zUPnl-1">
          <mxGeometry x="1830" y="4060" width="80" height="80" as="geometry" />
        </mxCell>
        <mxCell id="MsreDqlK55yj84_zUPnl-39" style="rounded=0;orthogonalLoop=1;jettySize=auto;html=1;endArrow=none;endFill=0;" edge="1" parent="MsreDqlK55yj84_zUPnl-1" source="MsreDqlK55yj84_zUPnl-40" target="MsreDqlK55yj84_zUPnl-4">
          <mxGeometry relative="1" as="geometry" />
        </mxCell>
        <mxCell id="MsreDqlK55yj84_zUPnl-40" value="&lt;u&gt;id&lt;/u&gt;" style="ellipse;whiteSpace=wrap;html=1;fillColor=#fff2cc;strokeColor=#d6b656;" vertex="1" parent="MsreDqlK55yj84_zUPnl-1">
          <mxGeometry x="2350" y="3740" width="80" height="50" as="geometry" />
        </mxCell>
        <mxCell id="MsreDqlK55yj84_zUPnl-43" value="" style="edgeStyle=orthogonalEdgeStyle;rounded=0;orthogonalLoop=1;jettySize=auto;html=1;endArrow=ERzeroToMany;endFill=0;startArrow=ERmandOne;startFill=0;" edge="1" parent="MsreDqlK55yj84_zUPnl-1" source="MsreDqlK55yj84_zUPnl-22" target="MsreDqlK55yj84_zUPnl-44">
          <mxGeometry relative="1" as="geometry">
            <mxPoint x="2090" y="4290" as="sourcePoint" />
            <mxPoint x="2260" y="4100" as="targetPoint" />
            <Array as="points">
              <mxPoint x="2090" y="4170" />
            </Array>
          </mxGeometry>
        </mxCell>
        <mxCell id="MsreDqlK55yj84_zUPnl-44" value="Está" style="rhombus;whiteSpace=wrap;html=1;fillColor=#d5e8d4;strokeColor=#82b366;" vertex="1" parent="MsreDqlK55yj84_zUPnl-1">
          <mxGeometry x="2110" y="4130" width="80" height="80" as="geometry" />
        </mxCell>
        <mxCell id="MsreDqlK55yj84_zUPnl-45" style="rounded=0;orthogonalLoop=1;jettySize=auto;html=1;endArrow=none;endFill=0;" edge="1" parent="MsreDqlK55yj84_zUPnl-1" source="MsreDqlK55yj84_zUPnl-46" target="MsreDqlK55yj84_zUPnl-4">
          <mxGeometry relative="1" as="geometry" />
        </mxCell>
        <mxCell id="MsreDqlK55yj84_zUPnl-46" value="Produtos" style="ellipse;whiteSpace=wrap;html=1;fillColor=#fff2cc;strokeColor=#d6b656;" vertex="1" parent="MsreDqlK55yj84_zUPnl-1">
          <mxGeometry x="2380" y="3832.5" width="80" height="50" as="geometry" />
        </mxCell>
        <mxCell id="MsreDqlK55yj84_zUPnl-47" style="rounded=0;orthogonalLoop=1;jettySize=auto;html=1;endArrow=none;endFill=0;" edge="1" parent="MsreDqlK55yj84_zUPnl-1" source="MsreDqlK55yj84_zUPnl-48" target="MsreDqlK55yj84_zUPnl-22">
          <mxGeometry relative="1" as="geometry" />
        </mxCell>
        <mxCell id="MsreDqlK55yj84_zUPnl-48" value="&lt;u&gt;id&lt;/u&gt;" style="ellipse;whiteSpace=wrap;html=1;fillColor=#fff2cc;strokeColor=#d6b656;" vertex="1" parent="MsreDqlK55yj84_zUPnl-1">
          <mxGeometry x="1960" y="4390" width="80" height="50" as="geometry" />
        </mxCell>
        <mxCell id="MsreDqlK55yj84_zUPnl-49" style="rounded=0;orthogonalLoop=1;jettySize=auto;html=1;endArrow=none;endFill=0;" edge="1" parent="MsreDqlK55yj84_zUPnl-1" source="MsreDqlK55yj84_zUPnl-50" target="MsreDqlK55yj84_zUPnl-22">
          <mxGeometry relative="1" as="geometry" />
        </mxCell>
        <mxCell id="MsreDqlK55yj84_zUPnl-50" value="nome" style="ellipse;whiteSpace=wrap;html=1;fillColor=#fff2cc;strokeColor=#d6b656;" vertex="1" parent="MsreDqlK55yj84_zUPnl-1">
          <mxGeometry x="2050" y="4390" width="80" height="50" as="geometry" />
        </mxCell>
        <mxCell id="MsreDqlK55yj84_zUPnl-51" style="rounded=0;orthogonalLoop=1;jettySize=auto;html=1;endArrow=none;endFill=0;" edge="1" parent="MsreDqlK55yj84_zUPnl-1" source="MsreDqlK55yj84_zUPnl-52" target="MsreDqlK55yj84_zUPnl-22">
          <mxGeometry relative="1" as="geometry" />
        </mxCell>
        <mxCell id="MsreDqlK55yj84_zUPnl-52" value="tipo&lt;div&gt;Produto&lt;/div&gt;" style="ellipse;whiteSpace=wrap;html=1;fillColor=#fff2cc;strokeColor=#d6b656;" vertex="1" parent="MsreDqlK55yj84_zUPnl-1">
          <mxGeometry x="2150" y="4390" width="80" height="50" as="geometry" />
        </mxCell>
        <mxCell id="MsreDqlK55yj84_zUPnl-53" value="&lt;h1 style=&quot;margin-top: 0px; font-size: 36px;&quot;&gt;&lt;font style=&quot;font-size: 36px;&quot;&gt;Exercício 2&lt;/font&gt;&lt;/h1&gt;&lt;div style=&quot;font-size: 36px;&quot;&gt;&lt;font style=&quot;font-size: 36px;&quot;&gt;&amp;nbsp;a)&lt;/font&gt;&lt;/div&gt;" style="text;html=1;whiteSpace=wrap;overflow=hidden;rounded=0;" vertex="1" parent="MsreDqlK55yj84_zUPnl-1">
          <mxGeometry x="1700" y="3550" width="380" height="120" as="geometry" />
        </mxCell>
        <mxCell id="MsreDqlK55yj84_zUPnl-54" value="Maquina" style="shape=table;startSize=30;container=1;collapsible=1;childLayout=tableLayout;fixedRows=1;rowLines=0;fontStyle=1;align=center;resizeLast=1;html=1;fillColor=#dae8fc;strokeColor=#6c8ebf;" vertex="1" parent="MsreDqlK55yj84_zUPnl-1">
          <mxGeometry x="2610" y="3850" width="180" height="125" as="geometry" />
        </mxCell>
        <mxCell id="MsreDqlK55yj84_zUPnl-55" value="" style="shape=tableRow;horizontal=0;startSize=0;swimlaneHead=0;swimlaneBody=0;fillColor=none;collapsible=0;dropTarget=0;points=[[0,0.5],[1,0.5]];portConstraint=eastwest;top=0;left=0;right=0;bottom=1;" vertex="1" parent="MsreDqlK55yj84_zUPnl-54">
          <mxGeometry y="30" width="180" height="30" as="geometry" />
        </mxCell>
        <mxCell id="MsreDqlK55yj84_zUPnl-56" value="PK" style="shape=partialRectangle;connectable=0;fillColor=none;top=0;left=0;bottom=0;right=0;fontStyle=1;overflow=hidden;whiteSpace=wrap;html=1;" vertex="1" parent="MsreDqlK55yj84_zUPnl-55">
          <mxGeometry width="30" height="30" as="geometry">
            <mxRectangle width="30" height="30" as="alternateBounds" />
          </mxGeometry>
        </mxCell>
        <mxCell id="MsreDqlK55yj84_zUPnl-57" value="codigo" style="shape=partialRectangle;connectable=0;fillColor=none;top=0;left=0;bottom=0;right=0;align=left;spacingLeft=6;fontStyle=5;overflow=hidden;whiteSpace=wrap;html=1;" vertex="1" parent="MsreDqlK55yj84_zUPnl-55">
          <mxGeometry x="30" width="150" height="30" as="geometry">
            <mxRectangle width="150" height="30" as="alternateBounds" />
          </mxGeometry>
        </mxCell>
        <mxCell id="MsreDqlK55yj84_zUPnl-58" value="" style="shape=tableRow;horizontal=0;startSize=0;swimlaneHead=0;swimlaneBody=0;fillColor=none;collapsible=0;dropTarget=0;points=[[0,0.5],[1,0.5]];portConstraint=eastwest;top=0;left=0;right=0;bottom=0;" vertex="1" parent="MsreDqlK55yj84_zUPnl-54">
          <mxGeometry y="60" width="180" height="30" as="geometry" />
        </mxCell>
        <mxCell id="MsreDqlK55yj84_zUPnl-59" value="" style="shape=partialRectangle;connectable=0;fillColor=none;top=0;left=0;bottom=0;right=0;editable=1;overflow=hidden;whiteSpace=wrap;html=1;" vertex="1" parent="MsreDqlK55yj84_zUPnl-58">
          <mxGeometry width="30" height="30" as="geometry">
            <mxRectangle width="30" height="30" as="alternateBounds" />
          </mxGeometry>
        </mxCell>
        <mxCell id="MsreDqlK55yj84_zUPnl-60" value="dataManutencao" style="shape=partialRectangle;connectable=0;fillColor=none;top=0;left=0;bottom=0;right=0;align=left;spacingLeft=6;overflow=hidden;whiteSpace=wrap;html=1;" vertex="1" parent="MsreDqlK55yj84_zUPnl-58">
          <mxGeometry x="30" width="150" height="30" as="geometry">
            <mxRectangle width="150" height="30" as="alternateBounds" />
          </mxGeometry>
        </mxCell>
        <mxCell id="MsreDqlK55yj84_zUPnl-61" value="" style="shape=tableRow;horizontal=0;startSize=0;swimlaneHead=0;swimlaneBody=0;fillColor=none;collapsible=0;dropTarget=0;points=[[0,0.5],[1,0.5]];portConstraint=eastwest;top=0;left=0;right=0;bottom=0;" vertex="1" parent="MsreDqlK55yj84_zUPnl-54">
          <mxGeometry y="90" width="180" height="35" as="geometry" />
        </mxCell>
        <mxCell id="MsreDqlK55yj84_zUPnl-62" value="FK" style="shape=partialRectangle;connectable=0;fillColor=none;top=0;left=0;bottom=0;right=0;editable=1;overflow=hidden;whiteSpace=wrap;html=1;" vertex="1" parent="MsreDqlK55yj84_zUPnl-61">
          <mxGeometry width="30" height="35" as="geometry">
            <mxRectangle width="30" height="35" as="alternateBounds" />
          </mxGeometry>
        </mxCell>
        <mxCell id="MsreDqlK55yj84_zUPnl-63" value="idTipoMaquina" style="shape=partialRectangle;connectable=0;fillColor=none;top=0;left=0;bottom=0;right=0;align=left;spacingLeft=6;overflow=hidden;whiteSpace=wrap;html=1;" vertex="1" parent="MsreDqlK55yj84_zUPnl-61">
          <mxGeometry x="30" width="150" height="35" as="geometry">
            <mxRectangle width="150" height="35" as="alternateBounds" />
          </mxGeometry>
        </mxCell>
        <mxCell id="MsreDqlK55yj84_zUPnl-64" value="Local" style="shape=table;startSize=30;container=1;collapsible=1;childLayout=tableLayout;fixedRows=1;rowLines=0;fontStyle=1;align=center;resizeLast=1;html=1;fillColor=#dae8fc;strokeColor=#6c8ebf;" vertex="1" parent="MsreDqlK55yj84_zUPnl-1">
          <mxGeometry x="2875" y="3790" width="180" height="90" as="geometry" />
        </mxCell>
        <mxCell id="MsreDqlK55yj84_zUPnl-65" value="" style="shape=tableRow;horizontal=0;startSize=0;swimlaneHead=0;swimlaneBody=0;fillColor=none;collapsible=0;dropTarget=0;points=[[0,0.5],[1,0.5]];portConstraint=eastwest;top=0;left=0;right=0;bottom=1;" vertex="1" parent="MsreDqlK55yj84_zUPnl-64">
          <mxGeometry y="30" width="180" height="30" as="geometry" />
        </mxCell>
        <mxCell id="MsreDqlK55yj84_zUPnl-66" value="PK" style="shape=partialRectangle;connectable=0;fillColor=none;top=0;left=0;bottom=0;right=0;fontStyle=1;overflow=hidden;whiteSpace=wrap;html=1;" vertex="1" parent="MsreDqlK55yj84_zUPnl-65">
          <mxGeometry width="30" height="30" as="geometry">
            <mxRectangle width="30" height="30" as="alternateBounds" />
          </mxGeometry>
        </mxCell>
        <mxCell id="MsreDqlK55yj84_zUPnl-67" value="id" style="shape=partialRectangle;connectable=0;fillColor=none;top=0;left=0;bottom=0;right=0;align=left;spacingLeft=6;fontStyle=5;overflow=hidden;whiteSpace=wrap;html=1;" vertex="1" parent="MsreDqlK55yj84_zUPnl-65">
          <mxGeometry x="30" width="150" height="30" as="geometry">
            <mxRectangle width="150" height="30" as="alternateBounds" />
          </mxGeometry>
        </mxCell>
        <mxCell id="MsreDqlK55yj84_zUPnl-68" value="" style="shape=tableRow;horizontal=0;startSize=0;swimlaneHead=0;swimlaneBody=0;fillColor=none;collapsible=0;dropTarget=0;points=[[0,0.5],[1,0.5]];portConstraint=eastwest;top=0;left=0;right=0;bottom=0;" vertex="1" parent="MsreDqlK55yj84_zUPnl-64">
          <mxGeometry y="60" width="180" height="30" as="geometry" />
        </mxCell>
        <mxCell id="MsreDqlK55yj84_zUPnl-69" value="" style="shape=partialRectangle;connectable=0;fillColor=none;top=0;left=0;bottom=0;right=0;editable=1;overflow=hidden;whiteSpace=wrap;html=1;" vertex="1" parent="MsreDqlK55yj84_zUPnl-68">
          <mxGeometry width="30" height="30" as="geometry">
            <mxRectangle width="30" height="30" as="alternateBounds" />
          </mxGeometry>
        </mxCell>
        <mxCell id="MsreDqlK55yj84_zUPnl-70" value="Nome" style="shape=partialRectangle;connectable=0;fillColor=none;top=0;left=0;bottom=0;right=0;align=left;spacingLeft=6;overflow=hidden;whiteSpace=wrap;html=1;" vertex="1" parent="MsreDqlK55yj84_zUPnl-68">
          <mxGeometry x="30" width="150" height="30" as="geometry">
            <mxRectangle width="150" height="30" as="alternateBounds" />
          </mxGeometry>
        </mxCell>
        <mxCell id="MsreDqlK55yj84_zUPnl-86" value="TipoMaquina" style="shape=table;startSize=30;container=1;collapsible=1;childLayout=tableLayout;fixedRows=1;rowLines=0;fontStyle=1;align=center;resizeLast=1;html=1;fillColor=#dae8fc;strokeColor=#6c8ebf;" vertex="1" parent="MsreDqlK55yj84_zUPnl-1">
          <mxGeometry x="2610" y="4044" width="180" height="95" as="geometry" />
        </mxCell>
        <mxCell id="MsreDqlK55yj84_zUPnl-87" value="" style="shape=tableRow;horizontal=0;startSize=0;swimlaneHead=0;swimlaneBody=0;fillColor=none;collapsible=0;dropTarget=0;points=[[0,0.5],[1,0.5]];portConstraint=eastwest;top=0;left=0;right=0;bottom=1;" vertex="1" parent="MsreDqlK55yj84_zUPnl-86">
          <mxGeometry y="30" width="180" height="30" as="geometry" />
        </mxCell>
        <mxCell id="MsreDqlK55yj84_zUPnl-88" value="PK" style="shape=partialRectangle;connectable=0;fillColor=none;top=0;left=0;bottom=0;right=0;fontStyle=1;overflow=hidden;whiteSpace=wrap;html=1;" vertex="1" parent="MsreDqlK55yj84_zUPnl-87">
          <mxGeometry width="30" height="30" as="geometry">
            <mxRectangle width="30" height="30" as="alternateBounds" />
          </mxGeometry>
        </mxCell>
        <mxCell id="MsreDqlK55yj84_zUPnl-89" value="id" style="shape=partialRectangle;connectable=0;fillColor=none;top=0;left=0;bottom=0;right=0;align=left;spacingLeft=6;fontStyle=5;overflow=hidden;whiteSpace=wrap;html=1;" vertex="1" parent="MsreDqlK55yj84_zUPnl-87">
          <mxGeometry x="30" width="150" height="30" as="geometry">
            <mxRectangle width="150" height="30" as="alternateBounds" />
          </mxGeometry>
        </mxCell>
        <mxCell id="MsreDqlK55yj84_zUPnl-90" value="" style="shape=tableRow;horizontal=0;startSize=0;swimlaneHead=0;swimlaneBody=0;fillColor=none;collapsible=0;dropTarget=0;points=[[0,0.5],[1,0.5]];portConstraint=eastwest;top=0;left=0;right=0;bottom=0;" vertex="1" parent="MsreDqlK55yj84_zUPnl-86">
          <mxGeometry y="60" width="180" height="35" as="geometry" />
        </mxCell>
        <mxCell id="MsreDqlK55yj84_zUPnl-91" value="" style="shape=partialRectangle;connectable=0;fillColor=none;top=0;left=0;bottom=0;right=0;editable=1;overflow=hidden;whiteSpace=wrap;html=1;" vertex="1" parent="MsreDqlK55yj84_zUPnl-90">
          <mxGeometry width="30" height="35" as="geometry">
            <mxRectangle width="30" height="35" as="alternateBounds" />
          </mxGeometry>
        </mxCell>
        <mxCell id="MsreDqlK55yj84_zUPnl-92" value="nome" style="shape=partialRectangle;connectable=0;fillColor=none;top=0;left=0;bottom=0;right=0;align=left;spacingLeft=6;overflow=hidden;whiteSpace=wrap;html=1;" vertex="1" parent="MsreDqlK55yj84_zUPnl-90">
          <mxGeometry x="30" width="150" height="35" as="geometry">
            <mxRectangle width="150" height="35" as="alternateBounds" />
          </mxGeometry>
        </mxCell>
        <mxCell id="MsreDqlK55yj84_zUPnl-93" value="TipoProduto" style="shape=table;startSize=30;container=1;collapsible=1;childLayout=tableLayout;fixedRows=1;rowLines=0;fontStyle=1;align=center;resizeLast=1;html=1;fillColor=#dae8fc;strokeColor=#6c8ebf;" vertex="1" parent="MsreDqlK55yj84_zUPnl-1">
          <mxGeometry x="2570" y="4450" width="180" height="95" as="geometry" />
        </mxCell>
        <mxCell id="MsreDqlK55yj84_zUPnl-94" value="" style="shape=tableRow;horizontal=0;startSize=0;swimlaneHead=0;swimlaneBody=0;fillColor=none;collapsible=0;dropTarget=0;points=[[0,0.5],[1,0.5]];portConstraint=eastwest;top=0;left=0;right=0;bottom=1;" vertex="1" parent="MsreDqlK55yj84_zUPnl-93">
          <mxGeometry y="30" width="180" height="30" as="geometry" />
        </mxCell>
        <mxCell id="MsreDqlK55yj84_zUPnl-95" value="PK" style="shape=partialRectangle;connectable=0;fillColor=none;top=0;left=0;bottom=0;right=0;fontStyle=1;overflow=hidden;whiteSpace=wrap;html=1;" vertex="1" parent="MsreDqlK55yj84_zUPnl-94">
          <mxGeometry width="30" height="30" as="geometry">
            <mxRectangle width="30" height="30" as="alternateBounds" />
          </mxGeometry>
        </mxCell>
        <mxCell id="MsreDqlK55yj84_zUPnl-96" value="id" style="shape=partialRectangle;connectable=0;fillColor=none;top=0;left=0;bottom=0;right=0;align=left;spacingLeft=6;fontStyle=5;overflow=hidden;whiteSpace=wrap;html=1;" vertex="1" parent="MsreDqlK55yj84_zUPnl-94">
          <mxGeometry x="30" width="150" height="30" as="geometry">
            <mxRectangle width="150" height="30" as="alternateBounds" />
          </mxGeometry>
        </mxCell>
        <mxCell id="MsreDqlK55yj84_zUPnl-97" value="" style="shape=tableRow;horizontal=0;startSize=0;swimlaneHead=0;swimlaneBody=0;fillColor=none;collapsible=0;dropTarget=0;points=[[0,0.5],[1,0.5]];portConstraint=eastwest;top=0;left=0;right=0;bottom=0;" vertex="1" parent="MsreDqlK55yj84_zUPnl-93">
          <mxGeometry y="60" width="180" height="35" as="geometry" />
        </mxCell>
        <mxCell id="MsreDqlK55yj84_zUPnl-98" value="" style="shape=partialRectangle;connectable=0;fillColor=none;top=0;left=0;bottom=0;right=0;editable=1;overflow=hidden;whiteSpace=wrap;html=1;" vertex="1" parent="MsreDqlK55yj84_zUPnl-97">
          <mxGeometry width="30" height="35" as="geometry">
            <mxRectangle width="30" height="35" as="alternateBounds" />
          </mxGeometry>
        </mxCell>
        <mxCell id="MsreDqlK55yj84_zUPnl-99" value="nome" style="shape=partialRectangle;connectable=0;fillColor=none;top=0;left=0;bottom=0;right=0;align=left;spacingLeft=6;overflow=hidden;whiteSpace=wrap;html=1;" vertex="1" parent="MsreDqlK55yj84_zUPnl-97">
          <mxGeometry x="30" width="150" height="35" as="geometry">
            <mxRectangle width="150" height="35" as="alternateBounds" />
          </mxGeometry>
        </mxCell>
        <mxCell id="MsreDqlK55yj84_zUPnl-100" value="Produto" style="shape=table;startSize=30;container=1;collapsible=1;childLayout=tableLayout;fixedRows=1;rowLines=0;fontStyle=1;align=center;resizeLast=1;html=1;fillColor=#dae8fc;strokeColor=#6c8ebf;" vertex="1" parent="MsreDqlK55yj84_zUPnl-1">
          <mxGeometry x="2600" y="4190" width="180" height="210" as="geometry" />
        </mxCell>
        <mxCell id="MsreDqlK55yj84_zUPnl-101" value="" style="shape=tableRow;horizontal=0;startSize=0;swimlaneHead=0;swimlaneBody=0;fillColor=none;collapsible=0;dropTarget=0;points=[[0,0.5],[1,0.5]];portConstraint=eastwest;top=0;left=0;right=0;bottom=1;" vertex="1" parent="MsreDqlK55yj84_zUPnl-100">
          <mxGeometry y="30" width="180" height="30" as="geometry" />
        </mxCell>
        <mxCell id="MsreDqlK55yj84_zUPnl-102" value="PK" style="shape=partialRectangle;connectable=0;fillColor=none;top=0;left=0;bottom=0;right=0;fontStyle=1;overflow=hidden;whiteSpace=wrap;html=1;" vertex="1" parent="MsreDqlK55yj84_zUPnl-101">
          <mxGeometry width="30" height="30" as="geometry">
            <mxRectangle width="30" height="30" as="alternateBounds" />
          </mxGeometry>
        </mxCell>
        <mxCell id="MsreDqlK55yj84_zUPnl-103" value="CodigoBarras" style="shape=partialRectangle;connectable=0;fillColor=none;top=0;left=0;bottom=0;right=0;align=left;spacingLeft=6;fontStyle=5;overflow=hidden;whiteSpace=wrap;html=1;" vertex="1" parent="MsreDqlK55yj84_zUPnl-101">
          <mxGeometry x="30" width="150" height="30" as="geometry">
            <mxRectangle width="150" height="30" as="alternateBounds" />
          </mxGeometry>
        </mxCell>
        <mxCell id="MsreDqlK55yj84_zUPnl-104" value="" style="shape=tableRow;horizontal=0;startSize=0;swimlaneHead=0;swimlaneBody=0;fillColor=none;collapsible=0;dropTarget=0;points=[[0,0.5],[1,0.5]];portConstraint=eastwest;top=0;left=0;right=0;bottom=0;" vertex="1" parent="MsreDqlK55yj84_zUPnl-100">
          <mxGeometry y="60" width="180" height="30" as="geometry" />
        </mxCell>
        <mxCell id="MsreDqlK55yj84_zUPnl-105" value="" style="shape=partialRectangle;connectable=0;fillColor=none;top=0;left=0;bottom=0;right=0;editable=1;overflow=hidden;whiteSpace=wrap;html=1;" vertex="1" parent="MsreDqlK55yj84_zUPnl-104">
          <mxGeometry width="30" height="30" as="geometry">
            <mxRectangle width="30" height="30" as="alternateBounds" />
          </mxGeometry>
        </mxCell>
        <mxCell id="MsreDqlK55yj84_zUPnl-106" value="nome" style="shape=partialRectangle;connectable=0;fillColor=none;top=0;left=0;bottom=0;right=0;align=left;spacingLeft=6;overflow=hidden;whiteSpace=wrap;html=1;" vertex="1" parent="MsreDqlK55yj84_zUPnl-104">
          <mxGeometry x="30" width="150" height="30" as="geometry">
            <mxRectangle width="150" height="30" as="alternateBounds" />
          </mxGeometry>
        </mxCell>
        <mxCell id="MsreDqlK55yj84_zUPnl-107" value="" style="shape=tableRow;horizontal=0;startSize=0;swimlaneHead=0;swimlaneBody=0;fillColor=none;collapsible=0;dropTarget=0;points=[[0,0.5],[1,0.5]];portConstraint=eastwest;top=0;left=0;right=0;bottom=0;" vertex="1" parent="MsreDqlK55yj84_zUPnl-100">
          <mxGeometry y="90" width="180" height="40" as="geometry" />
        </mxCell>
        <mxCell id="MsreDqlK55yj84_zUPnl-108" value="" style="shape=partialRectangle;connectable=0;fillColor=none;top=0;left=0;bottom=0;right=0;editable=1;overflow=hidden;whiteSpace=wrap;html=1;" vertex="1" parent="MsreDqlK55yj84_zUPnl-107">
          <mxGeometry width="30" height="40" as="geometry">
            <mxRectangle width="30" height="40" as="alternateBounds" />
          </mxGeometry>
        </mxCell>
        <mxCell id="MsreDqlK55yj84_zUPnl-109" value="valor" style="shape=partialRectangle;connectable=0;fillColor=none;top=0;left=0;bottom=0;right=0;align=left;spacingLeft=6;overflow=hidden;whiteSpace=wrap;html=1;" vertex="1" parent="MsreDqlK55yj84_zUPnl-107">
          <mxGeometry x="30" width="150" height="40" as="geometry">
            <mxRectangle width="150" height="40" as="alternateBounds" />
          </mxGeometry>
        </mxCell>
        <mxCell id="HCbBBMzuI_IIogZU7T-o-20" value="" style="shape=tableRow;horizontal=0;startSize=0;swimlaneHead=0;swimlaneBody=0;fillColor=none;collapsible=0;dropTarget=0;points=[[0,0.5],[1,0.5]];portConstraint=eastwest;top=0;left=0;right=0;bottom=0;" vertex="1" parent="MsreDqlK55yj84_zUPnl-100">
          <mxGeometry y="130" width="180" height="40" as="geometry" />
        </mxCell>
        <mxCell id="HCbBBMzuI_IIogZU7T-o-21" value="" style="shape=partialRectangle;connectable=0;fillColor=none;top=0;left=0;bottom=0;right=0;editable=1;overflow=hidden;whiteSpace=wrap;html=1;" vertex="1" parent="HCbBBMzuI_IIogZU7T-o-20">
          <mxGeometry width="30" height="40" as="geometry">
            <mxRectangle width="30" height="40" as="alternateBounds" />
          </mxGeometry>
        </mxCell>
        <mxCell id="HCbBBMzuI_IIogZU7T-o-22" value="isCold" style="shape=partialRectangle;connectable=0;fillColor=none;top=0;left=0;bottom=0;right=0;align=left;spacingLeft=6;overflow=hidden;whiteSpace=wrap;html=1;" vertex="1" parent="HCbBBMzuI_IIogZU7T-o-20">
          <mxGeometry x="30" width="150" height="40" as="geometry">
            <mxRectangle width="150" height="40" as="alternateBounds" />
          </mxGeometry>
        </mxCell>
        <mxCell id="HCbBBMzuI_IIogZU7T-o-23" value="" style="shape=tableRow;horizontal=0;startSize=0;swimlaneHead=0;swimlaneBody=0;fillColor=none;collapsible=0;dropTarget=0;points=[[0,0.5],[1,0.5]];portConstraint=eastwest;top=0;left=0;right=0;bottom=0;" vertex="1" parent="MsreDqlK55yj84_zUPnl-100">
          <mxGeometry y="170" width="180" height="40" as="geometry" />
        </mxCell>
        <mxCell id="HCbBBMzuI_IIogZU7T-o-24" value="FK" style="shape=partialRectangle;connectable=0;fillColor=none;top=0;left=0;bottom=0;right=0;editable=1;overflow=hidden;whiteSpace=wrap;html=1;" vertex="1" parent="HCbBBMzuI_IIogZU7T-o-23">
          <mxGeometry width="30" height="40" as="geometry">
            <mxRectangle width="30" height="40" as="alternateBounds" />
          </mxGeometry>
        </mxCell>
        <mxCell id="HCbBBMzuI_IIogZU7T-o-25" value="idTipoProduto" style="shape=partialRectangle;connectable=0;fillColor=none;top=0;left=0;bottom=0;right=0;align=left;spacingLeft=6;overflow=hidden;whiteSpace=wrap;html=1;" vertex="1" parent="HCbBBMzuI_IIogZU7T-o-23">
          <mxGeometry x="30" width="150" height="40" as="geometry">
            <mxRectangle width="150" height="40" as="alternateBounds" />
          </mxGeometry>
        </mxCell>
        <mxCell id="MsreDqlK55yj84_zUPnl-112" style="edgeStyle=orthogonalEdgeStyle;rounded=0;orthogonalLoop=1;jettySize=auto;html=1;exitX=0;exitY=0.5;exitDx=0;exitDy=0;endArrow=ERzeroToMany;endFill=0;startArrow=ERmandOne;startFill=0;" edge="1" parent="MsreDqlK55yj84_zUPnl-1" source="MsreDqlK55yj84_zUPnl-87" target="MsreDqlK55yj84_zUPnl-61">
          <mxGeometry relative="1" as="geometry" />
        </mxCell>
        <mxCell id="MsreDqlK55yj84_zUPnl-114" value="&lt;h1 style=&quot;margin-top: 0px; font-size: 36px;&quot;&gt;&lt;font style=&quot;font-size: 36px;&quot;&gt;Exercício 2&lt;/font&gt;&lt;/h1&gt;&lt;div style=&quot;font-size: 36px;&quot;&gt;&lt;font style=&quot;font-size: 36px;&quot;&gt;&amp;nbsp;b)&lt;/font&gt;&lt;/div&gt;" style="text;html=1;whiteSpace=wrap;overflow=hidden;rounded=0;" vertex="1" parent="MsreDqlK55yj84_zUPnl-1">
          <mxGeometry x="2600" y="3550" width="380" height="120" as="geometry" />
        </mxCell>
        <mxCell id="HCbBBMzuI_IIogZU7T-o-3" style="rounded=0;orthogonalLoop=1;jettySize=auto;html=1;endArrow=none;endFill=0;" edge="1" parent="MsreDqlK55yj84_zUPnl-1" source="HCbBBMzuI_IIogZU7T-o-0" target="MsreDqlK55yj84_zUPnl-22">
          <mxGeometry relative="1" as="geometry" />
        </mxCell>
        <mxCell id="HCbBBMzuI_IIogZU7T-o-0" value="isCold" style="ellipse;whiteSpace=wrap;html=1;fillColor=#fff2cc;strokeColor=#d6b656;" vertex="1" parent="MsreDqlK55yj84_zUPnl-1">
          <mxGeometry x="1870" y="4340" width="80" height="50" as="geometry" />
        </mxCell>
        <mxCell id="HCbBBMzuI_IIogZU7T-o-2" style="rounded=0;orthogonalLoop=1;jettySize=auto;html=1;endArrow=none;endFill=0;" edge="1" parent="MsreDqlK55yj84_zUPnl-1" source="HCbBBMzuI_IIogZU7T-o-1" target="MsreDqlK55yj84_zUPnl-22">
          <mxGeometry relative="1" as="geometry" />
        </mxCell>
        <mxCell id="HCbBBMzuI_IIogZU7T-o-1" value="valor" style="ellipse;whiteSpace=wrap;html=1;fillColor=#fff2cc;strokeColor=#d6b656;" vertex="1" parent="MsreDqlK55yj84_zUPnl-1">
          <mxGeometry x="1860" y="4410" width="80" height="50" as="geometry" />
        </mxCell>
        <mxCell id="HCbBBMzuI_IIogZU7T-o-5" value="Tipo Produto" style="rounded=0;whiteSpace=wrap;html=1;fillColor=#dae8fc;strokeColor=#6c8ebf;" vertex="1" parent="MsreDqlK55yj84_zUPnl-1">
          <mxGeometry x="2240" y="4570" width="120" height="60" as="geometry" />
        </mxCell>
        <mxCell id="HCbBBMzuI_IIogZU7T-o-10" style="rounded=0;orthogonalLoop=1;jettySize=auto;html=1;endArrow=none;endFill=0;" edge="1" parent="MsreDqlK55yj84_zUPnl-1" source="HCbBBMzuI_IIogZU7T-o-6" target="HCbBBMzuI_IIogZU7T-o-5">
          <mxGeometry relative="1" as="geometry" />
        </mxCell>
        <mxCell id="HCbBBMzuI_IIogZU7T-o-6" value="&lt;u&gt;id&lt;/u&gt;" style="ellipse;whiteSpace=wrap;html=1;fillColor=#fff2cc;strokeColor=#d6b656;" vertex="1" parent="MsreDqlK55yj84_zUPnl-1">
          <mxGeometry x="2380" y="4510" width="80" height="50" as="geometry" />
        </mxCell>
        <mxCell id="HCbBBMzuI_IIogZU7T-o-11" style="rounded=0;orthogonalLoop=1;jettySize=auto;html=1;endArrow=none;endFill=0;" edge="1" parent="MsreDqlK55yj84_zUPnl-1" source="HCbBBMzuI_IIogZU7T-o-7" target="HCbBBMzuI_IIogZU7T-o-5">
          <mxGeometry relative="1" as="geometry" />
        </mxCell>
        <mxCell id="HCbBBMzuI_IIogZU7T-o-7" value="nome" style="ellipse;whiteSpace=wrap;html=1;fillColor=#fff2cc;strokeColor=#d6b656;" vertex="1" parent="MsreDqlK55yj84_zUPnl-1">
          <mxGeometry x="2380" y="4590" width="80" height="50" as="geometry" />
        </mxCell>
        <mxCell id="HCbBBMzuI_IIogZU7T-o-19" style="edgeStyle=orthogonalEdgeStyle;rounded=0;orthogonalLoop=1;jettySize=auto;html=1;endArrow=ERmandOne;endFill=0;" edge="1" parent="MsreDqlK55yj84_zUPnl-1" source="HCbBBMzuI_IIogZU7T-o-17" target="HCbBBMzuI_IIogZU7T-o-5">
          <mxGeometry relative="1" as="geometry" />
        </mxCell>
        <mxCell id="HCbBBMzuI_IIogZU7T-o-17" value="tem" style="rhombus;whiteSpace=wrap;html=1;fillColor=#d5e8d4;strokeColor=#82b366;" vertex="1" parent="MsreDqlK55yj84_zUPnl-1">
          <mxGeometry x="2260" y="4420" width="80" height="80" as="geometry" />
        </mxCell>
        <mxCell id="HCbBBMzuI_IIogZU7T-o-26" style="edgeStyle=orthogonalEdgeStyle;rounded=0;orthogonalLoop=1;jettySize=auto;html=1;startArrow=ERmandOne;startFill=0;endArrow=ERoneToMany;endFill=0;" edge="1" parent="MsreDqlK55yj84_zUPnl-1" source="MsreDqlK55yj84_zUPnl-94" target="HCbBBMzuI_IIogZU7T-o-23">
          <mxGeometry relative="1" as="geometry" />
        </mxCell>
        <mxCell id="HCbBBMzuI_IIogZU7T-o-33" style="edgeStyle=orthogonalEdgeStyle;rounded=0;orthogonalLoop=1;jettySize=auto;html=1;endArrow=none;endFill=0;startArrow=ERmandOne;startFill=0;" edge="1" parent="MsreDqlK55yj84_zUPnl-1" source="HCbBBMzuI_IIogZU7T-o-27" target="HCbBBMzuI_IIogZU7T-o-30">
          <mxGeometry relative="1" as="geometry" />
        </mxCell>
        <mxCell id="HCbBBMzuI_IIogZU7T-o-27" value="Local" style="rounded=0;whiteSpace=wrap;html=1;fillColor=#dae8fc;strokeColor=#6c8ebf;" vertex="1" parent="MsreDqlK55yj84_zUPnl-1">
          <mxGeometry x="2090" y="3630" width="120" height="60" as="geometry" />
        </mxCell>
        <mxCell id="HCbBBMzuI_IIogZU7T-o-31" style="rounded=0;orthogonalLoop=1;jettySize=auto;html=1;endArrow=none;endFill=0;" edge="1" parent="MsreDqlK55yj84_zUPnl-1" source="HCbBBMzuI_IIogZU7T-o-28" target="HCbBBMzuI_IIogZU7T-o-27">
          <mxGeometry relative="1" as="geometry" />
        </mxCell>
        <mxCell id="HCbBBMzuI_IIogZU7T-o-28" value="&lt;u&gt;id&lt;/u&gt;" style="ellipse;whiteSpace=wrap;html=1;fillColor=#fff2cc;strokeColor=#d6b656;" vertex="1" parent="MsreDqlK55yj84_zUPnl-1">
          <mxGeometry x="2020" y="3540" width="80" height="50" as="geometry" />
        </mxCell>
        <mxCell id="HCbBBMzuI_IIogZU7T-o-32" style="rounded=0;orthogonalLoop=1;jettySize=auto;html=1;endArrow=none;endFill=0;" edge="1" parent="MsreDqlK55yj84_zUPnl-1" source="HCbBBMzuI_IIogZU7T-o-29" target="HCbBBMzuI_IIogZU7T-o-27">
          <mxGeometry relative="1" as="geometry" />
        </mxCell>
        <mxCell id="HCbBBMzuI_IIogZU7T-o-29" value="nome" style="ellipse;whiteSpace=wrap;html=1;fillColor=#fff2cc;strokeColor=#d6b656;" vertex="1" parent="MsreDqlK55yj84_zUPnl-1">
          <mxGeometry x="2150" y="3540" width="80" height="50" as="geometry" />
        </mxCell>
        <mxCell id="HCbBBMzuI_IIogZU7T-o-34" style="edgeStyle=orthogonalEdgeStyle;rounded=0;orthogonalLoop=1;jettySize=auto;html=1;endArrow=ERoneToMany;endFill=0;" edge="1" parent="MsreDqlK55yj84_zUPnl-1" source="HCbBBMzuI_IIogZU7T-o-30" target="MsreDqlK55yj84_zUPnl-4">
          <mxGeometry relative="1" as="geometry" />
        </mxCell>
        <mxCell id="HCbBBMzuI_IIogZU7T-o-30" value="tem" style="rhombus;whiteSpace=wrap;html=1;fillColor=#d5e8d4;strokeColor=#82b366;" vertex="1" parent="MsreDqlK55yj84_zUPnl-1">
          <mxGeometry x="2280" y="3610" width="80" height="80" as="geometry" />
        </mxCell>
        <mxCell id="HCbBBMzuI_IIogZU7T-o-35" value="MapaMaquinas" style="shape=table;startSize=30;container=1;collapsible=1;childLayout=tableLayout;fixedRows=1;rowLines=0;fontStyle=1;align=center;resizeLast=1;html=1;fillColor=#dae8fc;strokeColor=#6c8ebf;" vertex="1" parent="MsreDqlK55yj84_zUPnl-1">
          <mxGeometry x="2875" y="3915" width="180" height="120" as="geometry" />
        </mxCell>
        <mxCell id="HCbBBMzuI_IIogZU7T-o-36" value="" style="shape=tableRow;horizontal=0;startSize=0;swimlaneHead=0;swimlaneBody=0;fillColor=none;collapsible=0;dropTarget=0;points=[[0,0.5],[1,0.5]];portConstraint=eastwest;top=0;left=0;right=0;bottom=1;" vertex="1" parent="HCbBBMzuI_IIogZU7T-o-35">
          <mxGeometry y="30" width="180" height="30" as="geometry" />
        </mxCell>
        <mxCell id="HCbBBMzuI_IIogZU7T-o-37" value="PK" style="shape=partialRectangle;connectable=0;fillColor=none;top=0;left=0;bottom=0;right=0;fontStyle=1;overflow=hidden;whiteSpace=wrap;html=1;" vertex="1" parent="HCbBBMzuI_IIogZU7T-o-36">
          <mxGeometry width="30" height="30" as="geometry">
            <mxRectangle width="30" height="30" as="alternateBounds" />
          </mxGeometry>
        </mxCell>
        <mxCell id="HCbBBMzuI_IIogZU7T-o-38" value="id" style="shape=partialRectangle;connectable=0;fillColor=none;top=0;left=0;bottom=0;right=0;align=left;spacingLeft=6;fontStyle=5;overflow=hidden;whiteSpace=wrap;html=1;" vertex="1" parent="HCbBBMzuI_IIogZU7T-o-36">
          <mxGeometry x="30" width="150" height="30" as="geometry">
            <mxRectangle width="150" height="30" as="alternateBounds" />
          </mxGeometry>
        </mxCell>
        <mxCell id="HCbBBMzuI_IIogZU7T-o-39" value="" style="shape=tableRow;horizontal=0;startSize=0;swimlaneHead=0;swimlaneBody=0;fillColor=none;collapsible=0;dropTarget=0;points=[[0,0.5],[1,0.5]];portConstraint=eastwest;top=0;left=0;right=0;bottom=0;" vertex="1" parent="HCbBBMzuI_IIogZU7T-o-35">
          <mxGeometry y="60" width="180" height="30" as="geometry" />
        </mxCell>
        <mxCell id="HCbBBMzuI_IIogZU7T-o-40" value="FK" style="shape=partialRectangle;connectable=0;fillColor=none;top=0;left=0;bottom=0;right=0;editable=1;overflow=hidden;whiteSpace=wrap;html=1;" vertex="1" parent="HCbBBMzuI_IIogZU7T-o-39">
          <mxGeometry width="30" height="30" as="geometry">
            <mxRectangle width="30" height="30" as="alternateBounds" />
          </mxGeometry>
        </mxCell>
        <mxCell id="HCbBBMzuI_IIogZU7T-o-41" value="idMaquina" style="shape=partialRectangle;connectable=0;fillColor=none;top=0;left=0;bottom=0;right=0;align=left;spacingLeft=6;overflow=hidden;whiteSpace=wrap;html=1;" vertex="1" parent="HCbBBMzuI_IIogZU7T-o-39">
          <mxGeometry x="30" width="150" height="30" as="geometry">
            <mxRectangle width="150" height="30" as="alternateBounds" />
          </mxGeometry>
        </mxCell>
        <mxCell id="HCbBBMzuI_IIogZU7T-o-42" value="" style="shape=tableRow;horizontal=0;startSize=0;swimlaneHead=0;swimlaneBody=0;fillColor=none;collapsible=0;dropTarget=0;points=[[0,0.5],[1,0.5]];portConstraint=eastwest;top=0;left=0;right=0;bottom=0;" vertex="1" parent="HCbBBMzuI_IIogZU7T-o-35">
          <mxGeometry y="90" width="180" height="30" as="geometry" />
        </mxCell>
        <mxCell id="HCbBBMzuI_IIogZU7T-o-43" value="FK" style="shape=partialRectangle;connectable=0;fillColor=none;top=0;left=0;bottom=0;right=0;editable=1;overflow=hidden;whiteSpace=wrap;html=1;" vertex="1" parent="HCbBBMzuI_IIogZU7T-o-42">
          <mxGeometry width="30" height="30" as="geometry">
            <mxRectangle width="30" height="30" as="alternateBounds" />
          </mxGeometry>
        </mxCell>
        <mxCell id="HCbBBMzuI_IIogZU7T-o-44" value="idLocal" style="shape=partialRectangle;connectable=0;fillColor=none;top=0;left=0;bottom=0;right=0;align=left;spacingLeft=6;overflow=hidden;whiteSpace=wrap;html=1;" vertex="1" parent="HCbBBMzuI_IIogZU7T-o-42">
          <mxGeometry x="30" width="150" height="30" as="geometry">
            <mxRectangle width="150" height="30" as="alternateBounds" />
          </mxGeometry>
        </mxCell>
        <mxCell id="HCbBBMzuI_IIogZU7T-o-45" value="ListaProdutos" style="shape=table;startSize=30;container=1;collapsible=1;childLayout=tableLayout;fixedRows=1;rowLines=0;fontStyle=1;align=center;resizeLast=1;html=1;fillColor=#dae8fc;strokeColor=#6c8ebf;" vertex="1" parent="MsreDqlK55yj84_zUPnl-1">
          <mxGeometry x="2960" y="4066" width="180" height="210" as="geometry" />
        </mxCell>
        <mxCell id="HCbBBMzuI_IIogZU7T-o-46" value="" style="shape=tableRow;horizontal=0;startSize=0;swimlaneHead=0;swimlaneBody=0;fillColor=none;collapsible=0;dropTarget=0;points=[[0,0.5],[1,0.5]];portConstraint=eastwest;top=0;left=0;right=0;bottom=1;" vertex="1" parent="HCbBBMzuI_IIogZU7T-o-45">
          <mxGeometry y="30" width="180" height="30" as="geometry" />
        </mxCell>
        <mxCell id="HCbBBMzuI_IIogZU7T-o-47" value="PK" style="shape=partialRectangle;connectable=0;fillColor=none;top=0;left=0;bottom=0;right=0;fontStyle=1;overflow=hidden;whiteSpace=wrap;html=1;" vertex="1" parent="HCbBBMzuI_IIogZU7T-o-46">
          <mxGeometry width="30" height="30" as="geometry">
            <mxRectangle width="30" height="30" as="alternateBounds" />
          </mxGeometry>
        </mxCell>
        <mxCell id="HCbBBMzuI_IIogZU7T-o-48" value="id" style="shape=partialRectangle;connectable=0;fillColor=none;top=0;left=0;bottom=0;right=0;align=left;spacingLeft=6;fontStyle=5;overflow=hidden;whiteSpace=wrap;html=1;" vertex="1" parent="HCbBBMzuI_IIogZU7T-o-46">
          <mxGeometry x="30" width="150" height="30" as="geometry">
            <mxRectangle width="150" height="30" as="alternateBounds" />
          </mxGeometry>
        </mxCell>
        <mxCell id="HCbBBMzuI_IIogZU7T-o-49" value="" style="shape=tableRow;horizontal=0;startSize=0;swimlaneHead=0;swimlaneBody=0;fillColor=none;collapsible=0;dropTarget=0;points=[[0,0.5],[1,0.5]];portConstraint=eastwest;top=0;left=0;right=0;bottom=0;" vertex="1" parent="HCbBBMzuI_IIogZU7T-o-45">
          <mxGeometry y="60" width="180" height="30" as="geometry" />
        </mxCell>
        <mxCell id="HCbBBMzuI_IIogZU7T-o-50" value="FK" style="shape=partialRectangle;connectable=0;fillColor=none;top=0;left=0;bottom=0;right=0;editable=1;overflow=hidden;whiteSpace=wrap;html=1;" vertex="1" parent="HCbBBMzuI_IIogZU7T-o-49">
          <mxGeometry width="30" height="30" as="geometry">
            <mxRectangle width="30" height="30" as="alternateBounds" />
          </mxGeometry>
        </mxCell>
        <mxCell id="HCbBBMzuI_IIogZU7T-o-51" value="idMapaMaquina" style="shape=partialRectangle;connectable=0;fillColor=none;top=0;left=0;bottom=0;right=0;align=left;spacingLeft=6;overflow=hidden;whiteSpace=wrap;html=1;" vertex="1" parent="HCbBBMzuI_IIogZU7T-o-49">
          <mxGeometry x="30" width="150" height="30" as="geometry">
            <mxRectangle width="150" height="30" as="alternateBounds" />
          </mxGeometry>
        </mxCell>
        <mxCell id="HCbBBMzuI_IIogZU7T-o-52" value="" style="shape=tableRow;horizontal=0;startSize=0;swimlaneHead=0;swimlaneBody=0;fillColor=none;collapsible=0;dropTarget=0;points=[[0,0.5],[1,0.5]];portConstraint=eastwest;top=0;left=0;right=0;bottom=0;" vertex="1" parent="HCbBBMzuI_IIogZU7T-o-45">
          <mxGeometry y="90" width="180" height="30" as="geometry" />
        </mxCell>
        <mxCell id="HCbBBMzuI_IIogZU7T-o-53" value="FK" style="shape=partialRectangle;connectable=0;fillColor=none;top=0;left=0;bottom=0;right=0;editable=1;overflow=hidden;whiteSpace=wrap;html=1;" vertex="1" parent="HCbBBMzuI_IIogZU7T-o-52">
          <mxGeometry width="30" height="30" as="geometry">
            <mxRectangle width="30" height="30" as="alternateBounds" />
          </mxGeometry>
        </mxCell>
        <mxCell id="HCbBBMzuI_IIogZU7T-o-54" value="idProduto" style="shape=partialRectangle;connectable=0;fillColor=none;top=0;left=0;bottom=0;right=0;align=left;spacingLeft=6;overflow=hidden;whiteSpace=wrap;html=1;" vertex="1" parent="HCbBBMzuI_IIogZU7T-o-52">
          <mxGeometry x="30" width="150" height="30" as="geometry">
            <mxRectangle width="150" height="30" as="alternateBounds" />
          </mxGeometry>
        </mxCell>
        <mxCell id="HCbBBMzuI_IIogZU7T-o-56" value="" style="shape=tableRow;horizontal=0;startSize=0;swimlaneHead=0;swimlaneBody=0;fillColor=none;collapsible=0;dropTarget=0;points=[[0,0.5],[1,0.5]];portConstraint=eastwest;top=0;left=0;right=0;bottom=0;" vertex="1" parent="HCbBBMzuI_IIogZU7T-o-45">
          <mxGeometry y="120" width="180" height="30" as="geometry" />
        </mxCell>
        <mxCell id="HCbBBMzuI_IIogZU7T-o-57" value="" style="shape=partialRectangle;connectable=0;fillColor=none;top=0;left=0;bottom=0;right=0;editable=1;overflow=hidden;whiteSpace=wrap;html=1;" vertex="1" parent="HCbBBMzuI_IIogZU7T-o-56">
          <mxGeometry width="30" height="30" as="geometry">
            <mxRectangle width="30" height="30" as="alternateBounds" />
          </mxGeometry>
        </mxCell>
        <mxCell id="HCbBBMzuI_IIogZU7T-o-58" value="linha" style="shape=partialRectangle;connectable=0;fillColor=none;top=0;left=0;bottom=0;right=0;align=left;spacingLeft=6;overflow=hidden;whiteSpace=wrap;html=1;" vertex="1" parent="HCbBBMzuI_IIogZU7T-o-56">
          <mxGeometry x="30" width="150" height="30" as="geometry">
            <mxRectangle width="150" height="30" as="alternateBounds" />
          </mxGeometry>
        </mxCell>
        <mxCell id="HCbBBMzuI_IIogZU7T-o-65" value="" style="shape=tableRow;horizontal=0;startSize=0;swimlaneHead=0;swimlaneBody=0;fillColor=none;collapsible=0;dropTarget=0;points=[[0,0.5],[1,0.5]];portConstraint=eastwest;top=0;left=0;right=0;bottom=0;" vertex="1" parent="HCbBBMzuI_IIogZU7T-o-45">
          <mxGeometry y="150" width="180" height="30" as="geometry" />
        </mxCell>
        <mxCell id="HCbBBMzuI_IIogZU7T-o-66" value="" style="shape=partialRectangle;connectable=0;fillColor=none;top=0;left=0;bottom=0;right=0;editable=1;overflow=hidden;whiteSpace=wrap;html=1;" vertex="1" parent="HCbBBMzuI_IIogZU7T-o-65">
          <mxGeometry width="30" height="30" as="geometry">
            <mxRectangle width="30" height="30" as="alternateBounds" />
          </mxGeometry>
        </mxCell>
        <mxCell id="HCbBBMzuI_IIogZU7T-o-67" value="coluna" style="shape=partialRectangle;connectable=0;fillColor=none;top=0;left=0;bottom=0;right=0;align=left;spacingLeft=6;overflow=hidden;whiteSpace=wrap;html=1;" vertex="1" parent="HCbBBMzuI_IIogZU7T-o-65">
          <mxGeometry x="30" width="150" height="30" as="geometry">
            <mxRectangle width="150" height="30" as="alternateBounds" />
          </mxGeometry>
        </mxCell>
        <mxCell id="HCbBBMzuI_IIogZU7T-o-68" value="" style="shape=tableRow;horizontal=0;startSize=0;swimlaneHead=0;swimlaneBody=0;fillColor=none;collapsible=0;dropTarget=0;points=[[0,0.5],[1,0.5]];portConstraint=eastwest;top=0;left=0;right=0;bottom=0;" vertex="1" parent="HCbBBMzuI_IIogZU7T-o-45">
          <mxGeometry y="180" width="180" height="30" as="geometry" />
        </mxCell>
        <mxCell id="HCbBBMzuI_IIogZU7T-o-69" value="" style="shape=partialRectangle;connectable=0;fillColor=none;top=0;left=0;bottom=0;right=0;editable=1;overflow=hidden;whiteSpace=wrap;html=1;" vertex="1" parent="HCbBBMzuI_IIogZU7T-o-68">
          <mxGeometry width="30" height="30" as="geometry">
            <mxRectangle width="30" height="30" as="alternateBounds" />
          </mxGeometry>
        </mxCell>
        <mxCell id="HCbBBMzuI_IIogZU7T-o-70" value="quantidadeProduto" style="shape=partialRectangle;connectable=0;fillColor=none;top=0;left=0;bottom=0;right=0;align=left;spacingLeft=6;overflow=hidden;whiteSpace=wrap;html=1;" vertex="1" parent="HCbBBMzuI_IIogZU7T-o-68">
          <mxGeometry x="30" width="150" height="30" as="geometry">
            <mxRectangle width="150" height="30" as="alternateBounds" />
          </mxGeometry>
        </mxCell>
        <mxCell id="HCbBBMzuI_IIogZU7T-o-55" style="edgeStyle=orthogonalEdgeStyle;rounded=0;orthogonalLoop=1;jettySize=auto;html=1;startArrow=ERmandOne;startFill=0;endArrow=ERoneToMany;endFill=0;" edge="1" parent="MsreDqlK55yj84_zUPnl-1" source="HCbBBMzuI_IIogZU7T-o-36" target="HCbBBMzuI_IIogZU7T-o-49">
          <mxGeometry relative="1" as="geometry">
            <Array as="points">
              <mxPoint x="2850" y="3960" />
              <mxPoint x="2850" y="3820" />
              <mxPoint x="2560" y="3820" />
              <mxPoint x="2560" y="4160" />
              <mxPoint x="2830" y="4160" />
              <mxPoint x="2830" y="4145" />
            </Array>
          </mxGeometry>
        </mxCell>
        <mxCell id="HCbBBMzuI_IIogZU7T-o-71" style="edgeStyle=orthogonalEdgeStyle;rounded=0;orthogonalLoop=1;jettySize=auto;html=1;endArrow=ERzeroToMany;endFill=0;startArrow=ERmandOne;startFill=0;" edge="1" parent="MsreDqlK55yj84_zUPnl-1" source="MsreDqlK55yj84_zUPnl-101">
          <mxGeometry relative="1" as="geometry">
            <mxPoint x="2960" y="4171" as="targetPoint" />
            <Array as="points">
              <mxPoint x="2810" y="4235" />
              <mxPoint x="2810" y="4200" />
              <mxPoint x="2960" y="4200" />
            </Array>
          </mxGeometry>
        </mxCell>
        <mxCell id="HCbBBMzuI_IIogZU7T-o-72" style="edgeStyle=orthogonalEdgeStyle;rounded=0;orthogonalLoop=1;jettySize=auto;html=1;startArrow=ERmandOne;startFill=0;endArrow=ERzeroToMany;endFill=0;" edge="1" parent="MsreDqlK55yj84_zUPnl-1" source="MsreDqlK55yj84_zUPnl-55" target="HCbBBMzuI_IIogZU7T-o-39">
          <mxGeometry relative="1" as="geometry" />
        </mxCell>
        <mxCell id="HCbBBMzuI_IIogZU7T-o-73" style="edgeStyle=orthogonalEdgeStyle;rounded=0;orthogonalLoop=1;jettySize=auto;html=1;entryX=1;entryY=0.5;entryDx=0;entryDy=0;endArrow=ERmandOne;endFill=0;startArrow=ERmandOne;startFill=0;" edge="1" parent="MsreDqlK55yj84_zUPnl-1" source="MsreDqlK55yj84_zUPnl-65" target="HCbBBMzuI_IIogZU7T-o-42">
          <mxGeometry relative="1" as="geometry">
            <Array as="points">
              <mxPoint x="3080" y="3835" />
              <mxPoint x="3080" y="4020" />
            </Array>
          </mxGeometry>
        </mxCell>
      </root>
    </mxGraphModel>
  </diagram>
  <diagram name="Exercicio 3" id="gMUtiZtRMqp7id1_6Asl">
    <mxGraphModel dx="-988" dy="-2645" grid="1" gridSize="10" guides="1" tooltips="1" connect="1" arrows="1" fold="1" page="1" pageScale="1" pageWidth="827" pageHeight="1169" math="0" shadow="0">
      <root>
        <mxCell id="B8F3qWkasefJEqzQDRZw-0" />
        <mxCell id="B8F3qWkasefJEqzQDRZw-1" parent="B8F3qWkasefJEqzQDRZw-0" />
        <mxCell id="B8F3qWkasefJEqzQDRZw-11" style="rounded=0;orthogonalLoop=1;jettySize=auto;html=1;endArrow=none;endFill=0;" edge="1" parent="B8F3qWkasefJEqzQDRZw-1">
          <mxGeometry relative="1" as="geometry">
            <mxPoint x="2355.3846153846152" y="4290" as="targetPoint" />
          </mxGeometry>
        </mxCell>
        <mxCell id="B8F3qWkasefJEqzQDRZw-12" style="rounded=0;orthogonalLoop=1;jettySize=auto;html=1;endArrow=none;endFill=0;" edge="1" parent="B8F3qWkasefJEqzQDRZw-1">
          <mxGeometry relative="1" as="geometry">
            <mxPoint x="2360" y="4327.5" as="targetPoint" />
          </mxGeometry>
        </mxCell>
        <mxCell id="B8F3qWkasefJEqzQDRZw-43" value="CompraProdutos" style="shape=table;startSize=20;container=1;collapsible=1;childLayout=tableLayout;fixedRows=1;rowLines=0;fontStyle=1;align=center;resizeLast=1;html=1;fillColor=#dae8fc;strokeColor=#6c8ebf;" vertex="1" parent="B8F3qWkasefJEqzQDRZw-1">
          <mxGeometry x="2529.94" y="4092" width="180" height="220" as="geometry" />
        </mxCell>
        <mxCell id="B8F3qWkasefJEqzQDRZw-44" value="" style="shape=tableRow;horizontal=0;startSize=0;swimlaneHead=0;swimlaneBody=0;fillColor=none;collapsible=0;dropTarget=0;points=[[0,0.5],[1,0.5]];portConstraint=eastwest;top=0;left=0;right=0;bottom=1;" vertex="1" parent="B8F3qWkasefJEqzQDRZw-43">
          <mxGeometry y="20" width="180" height="30" as="geometry" />
        </mxCell>
        <mxCell id="B8F3qWkasefJEqzQDRZw-45" value="PK" style="shape=partialRectangle;connectable=0;fillColor=none;top=0;left=0;bottom=0;right=0;fontStyle=1;overflow=hidden;whiteSpace=wrap;html=1;" vertex="1" parent="B8F3qWkasefJEqzQDRZw-44">
          <mxGeometry width="30" height="30" as="geometry">
            <mxRectangle width="30" height="30" as="alternateBounds" />
          </mxGeometry>
        </mxCell>
        <mxCell id="B8F3qWkasefJEqzQDRZw-46" value="id" style="shape=partialRectangle;connectable=0;fillColor=none;top=0;left=0;bottom=0;right=0;align=left;spacingLeft=6;fontStyle=5;overflow=hidden;whiteSpace=wrap;html=1;" vertex="1" parent="B8F3qWkasefJEqzQDRZw-44">
          <mxGeometry x="30" width="150" height="30" as="geometry">
            <mxRectangle width="150" height="30" as="alternateBounds" />
          </mxGeometry>
        </mxCell>
        <mxCell id="B8F3qWkasefJEqzQDRZw-47" value="" style="shape=tableRow;horizontal=0;startSize=0;swimlaneHead=0;swimlaneBody=0;fillColor=none;collapsible=0;dropTarget=0;points=[[0,0.5],[1,0.5]];portConstraint=eastwest;top=0;left=0;right=0;bottom=0;" vertex="1" parent="B8F3qWkasefJEqzQDRZw-43">
          <mxGeometry y="50" width="180" height="40" as="geometry" />
        </mxCell>
        <mxCell id="B8F3qWkasefJEqzQDRZw-48" value="" style="shape=partialRectangle;connectable=0;fillColor=none;top=0;left=0;bottom=0;right=0;editable=1;overflow=hidden;whiteSpace=wrap;html=1;" vertex="1" parent="B8F3qWkasefJEqzQDRZw-47">
          <mxGeometry width="30" height="40" as="geometry">
            <mxRectangle width="30" height="40" as="alternateBounds" />
          </mxGeometry>
        </mxCell>
        <mxCell id="B8F3qWkasefJEqzQDRZw-49" value="quantidade" style="shape=partialRectangle;connectable=0;fillColor=none;top=0;left=0;bottom=0;right=0;align=left;spacingLeft=6;overflow=hidden;whiteSpace=wrap;html=1;" vertex="1" parent="B8F3qWkasefJEqzQDRZw-47">
          <mxGeometry x="30" width="150" height="40" as="geometry">
            <mxRectangle width="150" height="40" as="alternateBounds" />
          </mxGeometry>
        </mxCell>
        <mxCell id="V0Jxzfw6lnCyrtod_kOS-29" value="" style="shape=tableRow;horizontal=0;startSize=0;swimlaneHead=0;swimlaneBody=0;fillColor=none;collapsible=0;dropTarget=0;points=[[0,0.5],[1,0.5]];portConstraint=eastwest;top=0;left=0;right=0;bottom=0;" vertex="1" parent="B8F3qWkasefJEqzQDRZw-43">
          <mxGeometry y="90" width="180" height="40" as="geometry" />
        </mxCell>
        <mxCell id="V0Jxzfw6lnCyrtod_kOS-30" value="" style="shape=partialRectangle;connectable=0;fillColor=none;top=0;left=0;bottom=0;right=0;editable=1;overflow=hidden;whiteSpace=wrap;html=1;" vertex="1" parent="V0Jxzfw6lnCyrtod_kOS-29">
          <mxGeometry width="30" height="40" as="geometry">
            <mxRectangle width="30" height="40" as="alternateBounds" />
          </mxGeometry>
        </mxCell>
        <mxCell id="V0Jxzfw6lnCyrtod_kOS-31" value="valorCompra" style="shape=partialRectangle;connectable=0;fillColor=none;top=0;left=0;bottom=0;right=0;align=left;spacingLeft=6;overflow=hidden;whiteSpace=wrap;html=1;" vertex="1" parent="V0Jxzfw6lnCyrtod_kOS-29">
          <mxGeometry x="30" width="150" height="40" as="geometry">
            <mxRectangle width="150" height="40" as="alternateBounds" />
          </mxGeometry>
        </mxCell>
        <mxCell id="V0Jxzfw6lnCyrtod_kOS-44" value="" style="shape=tableRow;horizontal=0;startSize=0;swimlaneHead=0;swimlaneBody=0;fillColor=none;collapsible=0;dropTarget=0;points=[[0,0.5],[1,0.5]];portConstraint=eastwest;top=0;left=0;right=0;bottom=0;" vertex="1" parent="B8F3qWkasefJEqzQDRZw-43">
          <mxGeometry y="130" width="180" height="40" as="geometry" />
        </mxCell>
        <mxCell id="V0Jxzfw6lnCyrtod_kOS-45" value="" style="shape=partialRectangle;connectable=0;fillColor=none;top=0;left=0;bottom=0;right=0;editable=1;overflow=hidden;whiteSpace=wrap;html=1;" vertex="1" parent="V0Jxzfw6lnCyrtod_kOS-44">
          <mxGeometry width="30" height="40" as="geometry">
            <mxRectangle width="30" height="40" as="alternateBounds" />
          </mxGeometry>
        </mxCell>
        <mxCell id="V0Jxzfw6lnCyrtod_kOS-46" value="timestamp" style="shape=partialRectangle;connectable=0;fillColor=none;top=0;left=0;bottom=0;right=0;align=left;spacingLeft=6;overflow=hidden;whiteSpace=wrap;html=1;" vertex="1" parent="V0Jxzfw6lnCyrtod_kOS-44">
          <mxGeometry x="30" width="150" height="40" as="geometry">
            <mxRectangle width="150" height="40" as="alternateBounds" />
          </mxGeometry>
        </mxCell>
        <mxCell id="V0Jxzfw6lnCyrtod_kOS-132" value="" style="shape=tableRow;horizontal=0;startSize=0;swimlaneHead=0;swimlaneBody=0;fillColor=none;collapsible=0;dropTarget=0;points=[[0,0.5],[1,0.5]];portConstraint=eastwest;top=0;left=0;right=0;bottom=0;" vertex="1" parent="B8F3qWkasefJEqzQDRZw-43">
          <mxGeometry y="170" width="180" height="40" as="geometry" />
        </mxCell>
        <mxCell id="V0Jxzfw6lnCyrtod_kOS-133" value="FK" style="shape=partialRectangle;connectable=0;fillColor=none;top=0;left=0;bottom=0;right=0;editable=1;overflow=hidden;whiteSpace=wrap;html=1;" vertex="1" parent="V0Jxzfw6lnCyrtod_kOS-132">
          <mxGeometry width="30" height="40" as="geometry">
            <mxRectangle width="30" height="40" as="alternateBounds" />
          </mxGeometry>
        </mxCell>
        <mxCell id="V0Jxzfw6lnCyrtod_kOS-134" value="idMateriaPrima" style="shape=partialRectangle;connectable=0;fillColor=none;top=0;left=0;bottom=0;right=0;align=left;spacingLeft=6;overflow=hidden;whiteSpace=wrap;html=1;" vertex="1" parent="V0Jxzfw6lnCyrtod_kOS-132">
          <mxGeometry x="30" width="150" height="40" as="geometry">
            <mxRectangle width="150" height="40" as="alternateBounds" />
          </mxGeometry>
        </mxCell>
        <mxCell id="B8F3qWkasefJEqzQDRZw-74" value="Produtores" style="shape=table;startSize=30;container=1;collapsible=1;childLayout=tableLayout;fixedRows=1;rowLines=0;fontStyle=1;align=center;resizeLast=1;html=1;fillColor=#dae8fc;strokeColor=#6c8ebf;" vertex="1" parent="B8F3qWkasefJEqzQDRZw-1">
          <mxGeometry x="2529.94" y="4360" width="180" height="170" as="geometry" />
        </mxCell>
        <mxCell id="B8F3qWkasefJEqzQDRZw-75" value="" style="shape=tableRow;horizontal=0;startSize=0;swimlaneHead=0;swimlaneBody=0;fillColor=none;collapsible=0;dropTarget=0;points=[[0,0.5],[1,0.5]];portConstraint=eastwest;top=0;left=0;right=0;bottom=1;" vertex="1" parent="B8F3qWkasefJEqzQDRZw-74">
          <mxGeometry y="30" width="180" height="30" as="geometry" />
        </mxCell>
        <mxCell id="B8F3qWkasefJEqzQDRZw-76" value="PK" style="shape=partialRectangle;connectable=0;fillColor=none;top=0;left=0;bottom=0;right=0;fontStyle=1;overflow=hidden;whiteSpace=wrap;html=1;" vertex="1" parent="B8F3qWkasefJEqzQDRZw-75">
          <mxGeometry width="30.059999999999945" height="30" as="geometry">
            <mxRectangle width="30.059999999999945" height="30" as="alternateBounds" />
          </mxGeometry>
        </mxCell>
        <mxCell id="B8F3qWkasefJEqzQDRZw-77" value="id" style="shape=partialRectangle;connectable=0;fillColor=none;top=0;left=0;bottom=0;right=0;align=left;spacingLeft=6;fontStyle=5;overflow=hidden;whiteSpace=wrap;html=1;" vertex="1" parent="B8F3qWkasefJEqzQDRZw-75">
          <mxGeometry x="30.059999999999945" width="149.94000000000005" height="30" as="geometry">
            <mxRectangle width="149.94000000000005" height="30" as="alternateBounds" />
          </mxGeometry>
        </mxCell>
        <mxCell id="B8F3qWkasefJEqzQDRZw-78" value="" style="shape=tableRow;horizontal=0;startSize=0;swimlaneHead=0;swimlaneBody=0;fillColor=none;collapsible=0;dropTarget=0;points=[[0,0.5],[1,0.5]];portConstraint=eastwest;top=0;left=0;right=0;bottom=0;" vertex="1" parent="B8F3qWkasefJEqzQDRZw-74">
          <mxGeometry y="60" width="180" height="30" as="geometry" />
        </mxCell>
        <mxCell id="B8F3qWkasefJEqzQDRZw-79" value="" style="shape=partialRectangle;connectable=0;fillColor=none;top=0;left=0;bottom=0;right=0;editable=1;overflow=hidden;whiteSpace=wrap;html=1;" vertex="1" parent="B8F3qWkasefJEqzQDRZw-78">
          <mxGeometry width="30.059999999999945" height="30" as="geometry">
            <mxRectangle width="30.059999999999945" height="30" as="alternateBounds" />
          </mxGeometry>
        </mxCell>
        <mxCell id="B8F3qWkasefJEqzQDRZw-80" value="nome" style="shape=partialRectangle;connectable=0;fillColor=none;top=0;left=0;bottom=0;right=0;align=left;spacingLeft=6;overflow=hidden;whiteSpace=wrap;html=1;" vertex="1" parent="B8F3qWkasefJEqzQDRZw-78">
          <mxGeometry x="30.059999999999945" width="149.94000000000005" height="30" as="geometry">
            <mxRectangle width="149.94000000000005" height="30" as="alternateBounds" />
          </mxGeometry>
        </mxCell>
        <mxCell id="B8F3qWkasefJEqzQDRZw-81" value="" style="shape=tableRow;horizontal=0;startSize=0;swimlaneHead=0;swimlaneBody=0;fillColor=none;collapsible=0;dropTarget=0;points=[[0,0.5],[1,0.5]];portConstraint=eastwest;top=0;left=0;right=0;bottom=0;" vertex="1" parent="B8F3qWkasefJEqzQDRZw-74">
          <mxGeometry y="90" width="180" height="40" as="geometry" />
        </mxCell>
        <mxCell id="B8F3qWkasefJEqzQDRZw-82" value="" style="shape=partialRectangle;connectable=0;fillColor=none;top=0;left=0;bottom=0;right=0;editable=1;overflow=hidden;whiteSpace=wrap;html=1;" vertex="1" parent="B8F3qWkasefJEqzQDRZw-81">
          <mxGeometry width="30.059999999999945" height="40" as="geometry">
            <mxRectangle width="30.059999999999945" height="40" as="alternateBounds" />
          </mxGeometry>
        </mxCell>
        <mxCell id="B8F3qWkasefJEqzQDRZw-83" value="NIF" style="shape=partialRectangle;connectable=0;fillColor=none;top=0;left=0;bottom=0;right=0;align=left;spacingLeft=6;overflow=hidden;whiteSpace=wrap;html=1;" vertex="1" parent="B8F3qWkasefJEqzQDRZw-81">
          <mxGeometry x="30.059999999999945" width="149.94000000000005" height="40" as="geometry">
            <mxRectangle width="149.94000000000005" height="40" as="alternateBounds" />
          </mxGeometry>
        </mxCell>
        <mxCell id="V0Jxzfw6lnCyrtod_kOS-1" value="" style="shape=tableRow;horizontal=0;startSize=0;swimlaneHead=0;swimlaneBody=0;fillColor=none;collapsible=0;dropTarget=0;points=[[0,0.5],[1,0.5]];portConstraint=eastwest;top=0;left=0;right=0;bottom=0;" vertex="1" parent="B8F3qWkasefJEqzQDRZw-74">
          <mxGeometry y="130" width="180" height="40" as="geometry" />
        </mxCell>
        <mxCell id="V0Jxzfw6lnCyrtod_kOS-2" value="FK" style="shape=partialRectangle;connectable=0;fillColor=none;top=0;left=0;bottom=0;right=0;editable=1;overflow=hidden;whiteSpace=wrap;html=1;" vertex="1" parent="V0Jxzfw6lnCyrtod_kOS-1">
          <mxGeometry width="30.059999999999945" height="40" as="geometry">
            <mxRectangle width="30.059999999999945" height="40" as="alternateBounds" />
          </mxGeometry>
        </mxCell>
        <mxCell id="V0Jxzfw6lnCyrtod_kOS-3" value="idLocalidade" style="shape=partialRectangle;connectable=0;fillColor=none;top=0;left=0;bottom=0;right=0;align=left;spacingLeft=6;overflow=hidden;whiteSpace=wrap;html=1;" vertex="1" parent="V0Jxzfw6lnCyrtod_kOS-1">
          <mxGeometry x="30.059999999999945" width="149.94000000000005" height="40" as="geometry">
            <mxRectangle width="149.94000000000005" height="40" as="alternateBounds" />
          </mxGeometry>
        </mxCell>
        <mxCell id="B8F3qWkasefJEqzQDRZw-91" value="&lt;h1 style=&quot;margin-top: 0px; font-size: 36px;&quot;&gt;&lt;font style=&quot;font-size: 36px;&quot;&gt;Exercício 3&lt;/font&gt;&lt;/h1&gt;&lt;div style=&quot;font-size: 36px;&quot;&gt;&lt;font style=&quot;font-size: 36px;&quot;&gt;&amp;nbsp;a)&lt;/font&gt;&lt;/div&gt;" style="text;html=1;whiteSpace=wrap;overflow=hidden;rounded=0;" vertex="1" parent="B8F3qWkasefJEqzQDRZw-1">
          <mxGeometry x="2600" y="3550" width="380" height="120" as="geometry" />
        </mxCell>
        <mxCell id="B8F3qWkasefJEqzQDRZw-122" value="Stock" style="shape=table;startSize=30;container=1;collapsible=1;childLayout=tableLayout;fixedRows=1;rowLines=0;fontStyle=1;align=center;resizeLast=1;html=1;fillColor=#dae8fc;strokeColor=#6c8ebf;" vertex="1" parent="B8F3qWkasefJEqzQDRZw-1">
          <mxGeometry x="2510" y="3750" width="180" height="150" as="geometry" />
        </mxCell>
        <mxCell id="B8F3qWkasefJEqzQDRZw-123" value="" style="shape=tableRow;horizontal=0;startSize=0;swimlaneHead=0;swimlaneBody=0;fillColor=none;collapsible=0;dropTarget=0;points=[[0,0.5],[1,0.5]];portConstraint=eastwest;top=0;left=0;right=0;bottom=1;" vertex="1" parent="B8F3qWkasefJEqzQDRZw-122">
          <mxGeometry y="30" width="180" height="30" as="geometry" />
        </mxCell>
        <mxCell id="B8F3qWkasefJEqzQDRZw-124" value="PK" style="shape=partialRectangle;connectable=0;fillColor=none;top=0;left=0;bottom=0;right=0;fontStyle=1;overflow=hidden;whiteSpace=wrap;html=1;" vertex="1" parent="B8F3qWkasefJEqzQDRZw-123">
          <mxGeometry width="30" height="30" as="geometry">
            <mxRectangle width="30" height="30" as="alternateBounds" />
          </mxGeometry>
        </mxCell>
        <mxCell id="B8F3qWkasefJEqzQDRZw-125" value="id" style="shape=partialRectangle;connectable=0;fillColor=none;top=0;left=0;bottom=0;right=0;align=left;spacingLeft=6;fontStyle=5;overflow=hidden;whiteSpace=wrap;html=1;" vertex="1" parent="B8F3qWkasefJEqzQDRZw-123">
          <mxGeometry x="30" width="150" height="30" as="geometry">
            <mxRectangle width="150" height="30" as="alternateBounds" />
          </mxGeometry>
        </mxCell>
        <mxCell id="B8F3qWkasefJEqzQDRZw-126" value="" style="shape=tableRow;horizontal=0;startSize=0;swimlaneHead=0;swimlaneBody=0;fillColor=none;collapsible=0;dropTarget=0;points=[[0,0.5],[1,0.5]];portConstraint=eastwest;top=0;left=0;right=0;bottom=0;" vertex="1" parent="B8F3qWkasefJEqzQDRZw-122">
          <mxGeometry y="60" width="180" height="30" as="geometry" />
        </mxCell>
        <mxCell id="B8F3qWkasefJEqzQDRZw-127" value="FK" style="shape=partialRectangle;connectable=0;fillColor=none;top=0;left=0;bottom=0;right=0;editable=1;overflow=hidden;whiteSpace=wrap;html=1;" vertex="1" parent="B8F3qWkasefJEqzQDRZw-126">
          <mxGeometry width="30" height="30" as="geometry">
            <mxRectangle width="30" height="30" as="alternateBounds" />
          </mxGeometry>
        </mxCell>
        <mxCell id="B8F3qWkasefJEqzQDRZw-128" value="id&lt;span style=&quot;font-weight: 700; text-align: center; text-wrap: nowrap;&quot;&gt;Produto&lt;/span&gt;" style="shape=partialRectangle;connectable=0;fillColor=none;top=0;left=0;bottom=0;right=0;align=left;spacingLeft=6;overflow=hidden;whiteSpace=wrap;html=1;" vertex="1" parent="B8F3qWkasefJEqzQDRZw-126">
          <mxGeometry x="30" width="150" height="30" as="geometry">
            <mxRectangle width="150" height="30" as="alternateBounds" />
          </mxGeometry>
        </mxCell>
        <mxCell id="B8F3qWkasefJEqzQDRZw-135" value="" style="shape=tableRow;horizontal=0;startSize=0;swimlaneHead=0;swimlaneBody=0;fillColor=none;collapsible=0;dropTarget=0;points=[[0,0.5],[1,0.5]];portConstraint=eastwest;top=0;left=0;right=0;bottom=0;" vertex="1" parent="B8F3qWkasefJEqzQDRZw-122">
          <mxGeometry y="90" width="180" height="30" as="geometry" />
        </mxCell>
        <mxCell id="B8F3qWkasefJEqzQDRZw-136" value="" style="shape=partialRectangle;connectable=0;fillColor=none;top=0;left=0;bottom=0;right=0;editable=1;overflow=hidden;whiteSpace=wrap;html=1;" vertex="1" parent="B8F3qWkasefJEqzQDRZw-135">
          <mxGeometry width="30" height="30" as="geometry">
            <mxRectangle width="30" height="30" as="alternateBounds" />
          </mxGeometry>
        </mxCell>
        <mxCell id="B8F3qWkasefJEqzQDRZw-137" value="timestamp" style="shape=partialRectangle;connectable=0;fillColor=none;top=0;left=0;bottom=0;right=0;align=left;spacingLeft=6;overflow=hidden;whiteSpace=wrap;html=1;" vertex="1" parent="B8F3qWkasefJEqzQDRZw-135">
          <mxGeometry x="30" width="150" height="30" as="geometry">
            <mxRectangle width="150" height="30" as="alternateBounds" />
          </mxGeometry>
        </mxCell>
        <mxCell id="B8F3qWkasefJEqzQDRZw-138" value="" style="shape=tableRow;horizontal=0;startSize=0;swimlaneHead=0;swimlaneBody=0;fillColor=none;collapsible=0;dropTarget=0;points=[[0,0.5],[1,0.5]];portConstraint=eastwest;top=0;left=0;right=0;bottom=0;" vertex="1" parent="B8F3qWkasefJEqzQDRZw-122">
          <mxGeometry y="120" width="180" height="30" as="geometry" />
        </mxCell>
        <mxCell id="B8F3qWkasefJEqzQDRZw-139" value="" style="shape=partialRectangle;connectable=0;fillColor=none;top=0;left=0;bottom=0;right=0;editable=1;overflow=hidden;whiteSpace=wrap;html=1;" vertex="1" parent="B8F3qWkasefJEqzQDRZw-138">
          <mxGeometry width="30" height="30" as="geometry">
            <mxRectangle width="30" height="30" as="alternateBounds" />
          </mxGeometry>
        </mxCell>
        <mxCell id="B8F3qWkasefJEqzQDRZw-140" value="quantidade" style="shape=partialRectangle;connectable=0;fillColor=none;top=0;left=0;bottom=0;right=0;align=left;spacingLeft=6;overflow=hidden;whiteSpace=wrap;html=1;" vertex="1" parent="B8F3qWkasefJEqzQDRZw-138">
          <mxGeometry x="30" width="150" height="30" as="geometry">
            <mxRectangle width="150" height="30" as="alternateBounds" />
          </mxGeometry>
        </mxCell>
        <mxCell id="V0Jxzfw6lnCyrtod_kOS-4" value="localidade" style="shape=table;startSize=30;container=1;collapsible=1;childLayout=tableLayout;fixedRows=1;rowLines=0;fontStyle=1;align=center;resizeLast=1;html=1;fillColor=#dae8fc;strokeColor=#6c8ebf;" vertex="1" parent="B8F3qWkasefJEqzQDRZw-1">
          <mxGeometry x="2869.94" y="4520" width="180" height="100" as="geometry" />
        </mxCell>
        <mxCell id="V0Jxzfw6lnCyrtod_kOS-5" value="" style="shape=tableRow;horizontal=0;startSize=0;swimlaneHead=0;swimlaneBody=0;fillColor=none;collapsible=0;dropTarget=0;points=[[0,0.5],[1,0.5]];portConstraint=eastwest;top=0;left=0;right=0;bottom=1;" vertex="1" parent="V0Jxzfw6lnCyrtod_kOS-4">
          <mxGeometry y="30" width="180" height="30" as="geometry" />
        </mxCell>
        <mxCell id="V0Jxzfw6lnCyrtod_kOS-6" value="PK" style="shape=partialRectangle;connectable=0;fillColor=none;top=0;left=0;bottom=0;right=0;fontStyle=1;overflow=hidden;whiteSpace=wrap;html=1;" vertex="1" parent="V0Jxzfw6lnCyrtod_kOS-5">
          <mxGeometry width="30" height="30" as="geometry">
            <mxRectangle width="30" height="30" as="alternateBounds" />
          </mxGeometry>
        </mxCell>
        <mxCell id="V0Jxzfw6lnCyrtod_kOS-7" value="id" style="shape=partialRectangle;connectable=0;fillColor=none;top=0;left=0;bottom=0;right=0;align=left;spacingLeft=6;fontStyle=5;overflow=hidden;whiteSpace=wrap;html=1;" vertex="1" parent="V0Jxzfw6lnCyrtod_kOS-5">
          <mxGeometry x="30" width="150" height="30" as="geometry">
            <mxRectangle width="150" height="30" as="alternateBounds" />
          </mxGeometry>
        </mxCell>
        <mxCell id="V0Jxzfw6lnCyrtod_kOS-8" value="" style="shape=tableRow;horizontal=0;startSize=0;swimlaneHead=0;swimlaneBody=0;fillColor=none;collapsible=0;dropTarget=0;points=[[0,0.5],[1,0.5]];portConstraint=eastwest;top=0;left=0;right=0;bottom=0;" vertex="1" parent="V0Jxzfw6lnCyrtod_kOS-4">
          <mxGeometry y="60" width="180" height="40" as="geometry" />
        </mxCell>
        <mxCell id="V0Jxzfw6lnCyrtod_kOS-9" value="" style="shape=partialRectangle;connectable=0;fillColor=none;top=0;left=0;bottom=0;right=0;editable=1;overflow=hidden;whiteSpace=wrap;html=1;" vertex="1" parent="V0Jxzfw6lnCyrtod_kOS-8">
          <mxGeometry width="30" height="40" as="geometry">
            <mxRectangle width="30" height="40" as="alternateBounds" />
          </mxGeometry>
        </mxCell>
        <mxCell id="V0Jxzfw6lnCyrtod_kOS-10" value="nome" style="shape=partialRectangle;connectable=0;fillColor=none;top=0;left=0;bottom=0;right=0;align=left;spacingLeft=6;overflow=hidden;whiteSpace=wrap;html=1;" vertex="1" parent="V0Jxzfw6lnCyrtod_kOS-8">
          <mxGeometry x="30" width="150" height="40" as="geometry">
            <mxRectangle width="150" height="40" as="alternateBounds" />
          </mxGeometry>
        </mxCell>
        <mxCell id="V0Jxzfw6lnCyrtod_kOS-11" style="edgeStyle=orthogonalEdgeStyle;rounded=0;orthogonalLoop=1;jettySize=auto;html=1;endArrow=ERzeroToOne;endFill=0;startArrow=ERmandOne;startFill=0;" edge="1" parent="B8F3qWkasefJEqzQDRZw-1" source="V0Jxzfw6lnCyrtod_kOS-5" target="V0Jxzfw6lnCyrtod_kOS-1">
          <mxGeometry relative="1" as="geometry" />
        </mxCell>
        <mxCell id="V0Jxzfw6lnCyrtod_kOS-15" value="MateriaPrima" style="shape=table;startSize=30;container=1;collapsible=1;childLayout=tableLayout;fixedRows=1;rowLines=0;fontStyle=1;align=center;resizeLast=1;html=1;fillColor=#dae8fc;strokeColor=#6c8ebf;" vertex="1" parent="B8F3qWkasefJEqzQDRZw-1">
          <mxGeometry x="2869.94" y="4260" width="180" height="220" as="geometry" />
        </mxCell>
        <mxCell id="V0Jxzfw6lnCyrtod_kOS-16" value="" style="shape=tableRow;horizontal=0;startSize=0;swimlaneHead=0;swimlaneBody=0;fillColor=none;collapsible=0;dropTarget=0;points=[[0,0.5],[1,0.5]];portConstraint=eastwest;top=0;left=0;right=0;bottom=1;" vertex="1" parent="V0Jxzfw6lnCyrtod_kOS-15">
          <mxGeometry y="30" width="180" height="30" as="geometry" />
        </mxCell>
        <mxCell id="V0Jxzfw6lnCyrtod_kOS-17" value="PK" style="shape=partialRectangle;connectable=0;fillColor=none;top=0;left=0;bottom=0;right=0;fontStyle=1;overflow=hidden;whiteSpace=wrap;html=1;" vertex="1" parent="V0Jxzfw6lnCyrtod_kOS-16">
          <mxGeometry width="30" height="30" as="geometry">
            <mxRectangle width="30" height="30" as="alternateBounds" />
          </mxGeometry>
        </mxCell>
        <mxCell id="V0Jxzfw6lnCyrtod_kOS-18" value="id" style="shape=partialRectangle;connectable=0;fillColor=none;top=0;left=0;bottom=0;right=0;align=left;spacingLeft=6;fontStyle=5;overflow=hidden;whiteSpace=wrap;html=1;" vertex="1" parent="V0Jxzfw6lnCyrtod_kOS-16">
          <mxGeometry x="30" width="150" height="30" as="geometry">
            <mxRectangle width="150" height="30" as="alternateBounds" />
          </mxGeometry>
        </mxCell>
        <mxCell id="V0Jxzfw6lnCyrtod_kOS-19" value="" style="shape=tableRow;horizontal=0;startSize=0;swimlaneHead=0;swimlaneBody=0;fillColor=none;collapsible=0;dropTarget=0;points=[[0,0.5],[1,0.5]];portConstraint=eastwest;top=0;left=0;right=0;bottom=0;" vertex="1" parent="V0Jxzfw6lnCyrtod_kOS-15">
          <mxGeometry y="60" width="180" height="40" as="geometry" />
        </mxCell>
        <mxCell id="V0Jxzfw6lnCyrtod_kOS-20" value="" style="shape=partialRectangle;connectable=0;fillColor=none;top=0;left=0;bottom=0;right=0;editable=1;overflow=hidden;whiteSpace=wrap;html=1;" vertex="1" parent="V0Jxzfw6lnCyrtod_kOS-19">
          <mxGeometry width="30" height="40" as="geometry">
            <mxRectangle width="30" height="40" as="alternateBounds" />
          </mxGeometry>
        </mxCell>
        <mxCell id="V0Jxzfw6lnCyrtod_kOS-21" value="nome" style="shape=partialRectangle;connectable=0;fillColor=none;top=0;left=0;bottom=0;right=0;align=left;spacingLeft=6;overflow=hidden;whiteSpace=wrap;html=1;" vertex="1" parent="V0Jxzfw6lnCyrtod_kOS-19">
          <mxGeometry x="30" width="150" height="40" as="geometry">
            <mxRectangle width="150" height="40" as="alternateBounds" />
          </mxGeometry>
        </mxCell>
        <mxCell id="V0Jxzfw6lnCyrtod_kOS-22" value="" style="shape=tableRow;horizontal=0;startSize=0;swimlaneHead=0;swimlaneBody=0;fillColor=none;collapsible=0;dropTarget=0;points=[[0,0.5],[1,0.5]];portConstraint=eastwest;top=0;left=0;right=0;bottom=0;" vertex="1" parent="V0Jxzfw6lnCyrtod_kOS-15">
          <mxGeometry y="100" width="180" height="40" as="geometry" />
        </mxCell>
        <mxCell id="V0Jxzfw6lnCyrtod_kOS-23" value="" style="shape=partialRectangle;connectable=0;fillColor=none;top=0;left=0;bottom=0;right=0;editable=1;overflow=hidden;whiteSpace=wrap;html=1;" vertex="1" parent="V0Jxzfw6lnCyrtod_kOS-22">
          <mxGeometry width="30" height="40" as="geometry">
            <mxRectangle width="30" height="40" as="alternateBounds" />
          </mxGeometry>
        </mxCell>
        <mxCell id="V0Jxzfw6lnCyrtod_kOS-24" value="valor" style="shape=partialRectangle;connectable=0;fillColor=none;top=0;left=0;bottom=0;right=0;align=left;spacingLeft=6;overflow=hidden;whiteSpace=wrap;html=1;" vertex="1" parent="V0Jxzfw6lnCyrtod_kOS-22">
          <mxGeometry x="30" width="150" height="40" as="geometry">
            <mxRectangle width="150" height="40" as="alternateBounds" />
          </mxGeometry>
        </mxCell>
        <mxCell id="V0Jxzfw6lnCyrtod_kOS-33" value="" style="shape=tableRow;horizontal=0;startSize=0;swimlaneHead=0;swimlaneBody=0;fillColor=none;collapsible=0;dropTarget=0;points=[[0,0.5],[1,0.5]];portConstraint=eastwest;top=0;left=0;right=0;bottom=0;" vertex="1" parent="V0Jxzfw6lnCyrtod_kOS-15">
          <mxGeometry y="140" width="180" height="40" as="geometry" />
        </mxCell>
        <mxCell id="V0Jxzfw6lnCyrtod_kOS-34" value="FK" style="shape=partialRectangle;connectable=0;fillColor=none;top=0;left=0;bottom=0;right=0;editable=1;overflow=hidden;whiteSpace=wrap;html=1;" vertex="1" parent="V0Jxzfw6lnCyrtod_kOS-33">
          <mxGeometry width="30" height="40" as="geometry">
            <mxRectangle width="30" height="40" as="alternateBounds" />
          </mxGeometry>
        </mxCell>
        <mxCell id="V0Jxzfw6lnCyrtod_kOS-35" value="tipoQuantidade" style="shape=partialRectangle;connectable=0;fillColor=none;top=0;left=0;bottom=0;right=0;align=left;spacingLeft=6;overflow=hidden;whiteSpace=wrap;html=1;" vertex="1" parent="V0Jxzfw6lnCyrtod_kOS-33">
          <mxGeometry x="30" width="150" height="40" as="geometry">
            <mxRectangle width="150" height="40" as="alternateBounds" />
          </mxGeometry>
        </mxCell>
        <mxCell id="V0Jxzfw6lnCyrtod_kOS-127" value="" style="shape=tableRow;horizontal=0;startSize=0;swimlaneHead=0;swimlaneBody=0;fillColor=none;collapsible=0;dropTarget=0;points=[[0,0.5],[1,0.5]];portConstraint=eastwest;top=0;left=0;right=0;bottom=0;" vertex="1" parent="V0Jxzfw6lnCyrtod_kOS-15">
          <mxGeometry y="180" width="180" height="40" as="geometry" />
        </mxCell>
        <mxCell id="V0Jxzfw6lnCyrtod_kOS-128" value="FK" style="shape=partialRectangle;connectable=0;fillColor=none;top=0;left=0;bottom=0;right=0;editable=1;overflow=hidden;whiteSpace=wrap;html=1;" vertex="1" parent="V0Jxzfw6lnCyrtod_kOS-127">
          <mxGeometry width="30" height="40" as="geometry">
            <mxRectangle width="30" height="40" as="alternateBounds" />
          </mxGeometry>
        </mxCell>
        <mxCell id="V0Jxzfw6lnCyrtod_kOS-129" value="idProdutores" style="shape=partialRectangle;connectable=0;fillColor=none;top=0;left=0;bottom=0;right=0;align=left;spacingLeft=6;overflow=hidden;whiteSpace=wrap;html=1;" vertex="1" parent="V0Jxzfw6lnCyrtod_kOS-127">
          <mxGeometry x="30" width="150" height="40" as="geometry">
            <mxRectangle width="150" height="40" as="alternateBounds" />
          </mxGeometry>
        </mxCell>
        <mxCell id="V0Jxzfw6lnCyrtod_kOS-36" value="tipoQuantidade" style="shape=table;startSize=30;container=1;collapsible=1;childLayout=tableLayout;fixedRows=1;rowLines=0;fontStyle=1;align=center;resizeLast=1;html=1;fillColor=#dae8fc;strokeColor=#6c8ebf;" vertex="1" parent="B8F3qWkasefJEqzQDRZw-1">
          <mxGeometry x="3110" y="4390" width="180" height="100" as="geometry" />
        </mxCell>
        <mxCell id="V0Jxzfw6lnCyrtod_kOS-37" value="" style="shape=tableRow;horizontal=0;startSize=0;swimlaneHead=0;swimlaneBody=0;fillColor=none;collapsible=0;dropTarget=0;points=[[0,0.5],[1,0.5]];portConstraint=eastwest;top=0;left=0;right=0;bottom=1;" vertex="1" parent="V0Jxzfw6lnCyrtod_kOS-36">
          <mxGeometry y="30" width="180" height="30" as="geometry" />
        </mxCell>
        <mxCell id="V0Jxzfw6lnCyrtod_kOS-38" value="PK" style="shape=partialRectangle;connectable=0;fillColor=none;top=0;left=0;bottom=0;right=0;fontStyle=1;overflow=hidden;whiteSpace=wrap;html=1;" vertex="1" parent="V0Jxzfw6lnCyrtod_kOS-37">
          <mxGeometry width="30" height="30" as="geometry">
            <mxRectangle width="30" height="30" as="alternateBounds" />
          </mxGeometry>
        </mxCell>
        <mxCell id="V0Jxzfw6lnCyrtod_kOS-39" value="id" style="shape=partialRectangle;connectable=0;fillColor=none;top=0;left=0;bottom=0;right=0;align=left;spacingLeft=6;fontStyle=5;overflow=hidden;whiteSpace=wrap;html=1;" vertex="1" parent="V0Jxzfw6lnCyrtod_kOS-37">
          <mxGeometry x="30" width="150" height="30" as="geometry">
            <mxRectangle width="150" height="30" as="alternateBounds" />
          </mxGeometry>
        </mxCell>
        <mxCell id="V0Jxzfw6lnCyrtod_kOS-40" value="" style="shape=tableRow;horizontal=0;startSize=0;swimlaneHead=0;swimlaneBody=0;fillColor=none;collapsible=0;dropTarget=0;points=[[0,0.5],[1,0.5]];portConstraint=eastwest;top=0;left=0;right=0;bottom=0;" vertex="1" parent="V0Jxzfw6lnCyrtod_kOS-36">
          <mxGeometry y="60" width="180" height="40" as="geometry" />
        </mxCell>
        <mxCell id="V0Jxzfw6lnCyrtod_kOS-41" value="" style="shape=partialRectangle;connectable=0;fillColor=none;top=0;left=0;bottom=0;right=0;editable=1;overflow=hidden;whiteSpace=wrap;html=1;" vertex="1" parent="V0Jxzfw6lnCyrtod_kOS-40">
          <mxGeometry width="30" height="40" as="geometry">
            <mxRectangle width="30" height="40" as="alternateBounds" />
          </mxGeometry>
        </mxCell>
        <mxCell id="V0Jxzfw6lnCyrtod_kOS-42" value="nome" style="shape=partialRectangle;connectable=0;fillColor=none;top=0;left=0;bottom=0;right=0;align=left;spacingLeft=6;overflow=hidden;whiteSpace=wrap;html=1;" vertex="1" parent="V0Jxzfw6lnCyrtod_kOS-40">
          <mxGeometry x="30" width="150" height="40" as="geometry">
            <mxRectangle width="150" height="40" as="alternateBounds" />
          </mxGeometry>
        </mxCell>
        <mxCell id="V0Jxzfw6lnCyrtod_kOS-43" style="edgeStyle=orthogonalEdgeStyle;rounded=0;orthogonalLoop=1;jettySize=auto;html=1;endArrow=ERzeroToOne;endFill=0;startArrow=ERmandOne;startFill=0;" edge="1" parent="B8F3qWkasefJEqzQDRZw-1" source="V0Jxzfw6lnCyrtod_kOS-37" target="V0Jxzfw6lnCyrtod_kOS-33">
          <mxGeometry relative="1" as="geometry" />
        </mxCell>
        <mxCell id="V0Jxzfw6lnCyrtod_kOS-47" value="Produto" style="shape=table;startSize=30;container=1;collapsible=1;childLayout=tableLayout;fixedRows=1;rowLines=0;fontStyle=1;align=center;resizeLast=1;html=1;fillColor=#dae8fc;strokeColor=#6c8ebf;" vertex="1" parent="B8F3qWkasefJEqzQDRZw-1">
          <mxGeometry x="2750" y="3820" width="180" height="210" as="geometry" />
        </mxCell>
        <mxCell id="V0Jxzfw6lnCyrtod_kOS-48" value="" style="shape=tableRow;horizontal=0;startSize=0;swimlaneHead=0;swimlaneBody=0;fillColor=none;collapsible=0;dropTarget=0;points=[[0,0.5],[1,0.5]];portConstraint=eastwest;top=0;left=0;right=0;bottom=1;" vertex="1" parent="V0Jxzfw6lnCyrtod_kOS-47">
          <mxGeometry y="30" width="180" height="30" as="geometry" />
        </mxCell>
        <mxCell id="V0Jxzfw6lnCyrtod_kOS-49" value="PK" style="shape=partialRectangle;connectable=0;fillColor=none;top=0;left=0;bottom=0;right=0;fontStyle=1;overflow=hidden;whiteSpace=wrap;html=1;" vertex="1" parent="V0Jxzfw6lnCyrtod_kOS-48">
          <mxGeometry width="30" height="30" as="geometry">
            <mxRectangle width="30" height="30" as="alternateBounds" />
          </mxGeometry>
        </mxCell>
        <mxCell id="V0Jxzfw6lnCyrtod_kOS-50" value="id" style="shape=partialRectangle;connectable=0;fillColor=none;top=0;left=0;bottom=0;right=0;align=left;spacingLeft=6;fontStyle=5;overflow=hidden;whiteSpace=wrap;html=1;" vertex="1" parent="V0Jxzfw6lnCyrtod_kOS-48">
          <mxGeometry x="30" width="150" height="30" as="geometry">
            <mxRectangle width="150" height="30" as="alternateBounds" />
          </mxGeometry>
        </mxCell>
        <mxCell id="V0Jxzfw6lnCyrtod_kOS-51" value="" style="shape=tableRow;horizontal=0;startSize=0;swimlaneHead=0;swimlaneBody=0;fillColor=none;collapsible=0;dropTarget=0;points=[[0,0.5],[1,0.5]];portConstraint=eastwest;top=0;left=0;right=0;bottom=0;" vertex="1" parent="V0Jxzfw6lnCyrtod_kOS-47">
          <mxGeometry y="60" width="180" height="30" as="geometry" />
        </mxCell>
        <mxCell id="V0Jxzfw6lnCyrtod_kOS-52" value="FK" style="shape=partialRectangle;connectable=0;fillColor=none;top=0;left=0;bottom=0;right=0;editable=1;overflow=hidden;whiteSpace=wrap;html=1;" vertex="1" parent="V0Jxzfw6lnCyrtod_kOS-51">
          <mxGeometry width="30" height="30" as="geometry">
            <mxRectangle width="30" height="30" as="alternateBounds" />
          </mxGeometry>
        </mxCell>
        <mxCell id="V0Jxzfw6lnCyrtod_kOS-53" value="idCompraProdutos" style="shape=partialRectangle;connectable=0;fillColor=none;top=0;left=0;bottom=0;right=0;align=left;spacingLeft=6;overflow=hidden;whiteSpace=wrap;html=1;" vertex="1" parent="V0Jxzfw6lnCyrtod_kOS-51">
          <mxGeometry x="30" width="150" height="30" as="geometry">
            <mxRectangle width="150" height="30" as="alternateBounds" />
          </mxGeometry>
        </mxCell>
        <mxCell id="V0Jxzfw6lnCyrtod_kOS-57" value="" style="shape=tableRow;horizontal=0;startSize=0;swimlaneHead=0;swimlaneBody=0;fillColor=none;collapsible=0;dropTarget=0;points=[[0,0.5],[1,0.5]];portConstraint=eastwest;top=0;left=0;right=0;bottom=0;" vertex="1" parent="V0Jxzfw6lnCyrtod_kOS-47">
          <mxGeometry y="90" width="180" height="30" as="geometry" />
        </mxCell>
        <mxCell id="V0Jxzfw6lnCyrtod_kOS-58" value="" style="shape=partialRectangle;connectable=0;fillColor=none;top=0;left=0;bottom=0;right=0;editable=1;overflow=hidden;whiteSpace=wrap;html=1;" vertex="1" parent="V0Jxzfw6lnCyrtod_kOS-57">
          <mxGeometry width="30" height="30" as="geometry">
            <mxRectangle width="30" height="30" as="alternateBounds" />
          </mxGeometry>
        </mxCell>
        <mxCell id="V0Jxzfw6lnCyrtod_kOS-59" value="nome" style="shape=partialRectangle;connectable=0;fillColor=none;top=0;left=0;bottom=0;right=0;align=left;spacingLeft=6;overflow=hidden;whiteSpace=wrap;html=1;" vertex="1" parent="V0Jxzfw6lnCyrtod_kOS-57">
          <mxGeometry x="30" width="150" height="30" as="geometry">
            <mxRectangle width="150" height="30" as="alternateBounds" />
          </mxGeometry>
        </mxCell>
        <mxCell id="V0Jxzfw6lnCyrtod_kOS-60" value="" style="shape=tableRow;horizontal=0;startSize=0;swimlaneHead=0;swimlaneBody=0;fillColor=none;collapsible=0;dropTarget=0;points=[[0,0.5],[1,0.5]];portConstraint=eastwest;top=0;left=0;right=0;bottom=0;" vertex="1" parent="V0Jxzfw6lnCyrtod_kOS-47">
          <mxGeometry y="120" width="180" height="30" as="geometry" />
        </mxCell>
        <mxCell id="V0Jxzfw6lnCyrtod_kOS-61" value="" style="shape=partialRectangle;connectable=0;fillColor=none;top=0;left=0;bottom=0;right=0;editable=1;overflow=hidden;whiteSpace=wrap;html=1;" vertex="1" parent="V0Jxzfw6lnCyrtod_kOS-60">
          <mxGeometry width="30" height="30" as="geometry">
            <mxRectangle width="30" height="30" as="alternateBounds" />
          </mxGeometry>
        </mxCell>
        <mxCell id="V0Jxzfw6lnCyrtod_kOS-62" value="descricao" style="shape=partialRectangle;connectable=0;fillColor=none;top=0;left=0;bottom=0;right=0;align=left;spacingLeft=6;overflow=hidden;whiteSpace=wrap;html=1;" vertex="1" parent="V0Jxzfw6lnCyrtod_kOS-60">
          <mxGeometry x="30" width="150" height="30" as="geometry">
            <mxRectangle width="150" height="30" as="alternateBounds" />
          </mxGeometry>
        </mxCell>
        <mxCell id="V0Jxzfw6lnCyrtod_kOS-156" value="" style="shape=tableRow;horizontal=0;startSize=0;swimlaneHead=0;swimlaneBody=0;fillColor=none;collapsible=0;dropTarget=0;points=[[0,0.5],[1,0.5]];portConstraint=eastwest;top=0;left=0;right=0;bottom=0;" vertex="1" parent="V0Jxzfw6lnCyrtod_kOS-47">
          <mxGeometry y="150" width="180" height="30" as="geometry" />
        </mxCell>
        <mxCell id="V0Jxzfw6lnCyrtod_kOS-157" value="" style="shape=partialRectangle;connectable=0;fillColor=none;top=0;left=0;bottom=0;right=0;editable=1;overflow=hidden;whiteSpace=wrap;html=1;" vertex="1" parent="V0Jxzfw6lnCyrtod_kOS-156">
          <mxGeometry width="30" height="30" as="geometry">
            <mxRectangle width="30" height="30" as="alternateBounds" />
          </mxGeometry>
        </mxCell>
        <mxCell id="V0Jxzfw6lnCyrtod_kOS-158" value="valor" style="shape=partialRectangle;connectable=0;fillColor=none;top=0;left=0;bottom=0;right=0;align=left;spacingLeft=6;overflow=hidden;whiteSpace=wrap;html=1;" vertex="1" parent="V0Jxzfw6lnCyrtod_kOS-156">
          <mxGeometry x="30" width="150" height="30" as="geometry">
            <mxRectangle width="150" height="30" as="alternateBounds" />
          </mxGeometry>
        </mxCell>
        <mxCell id="V0Jxzfw6lnCyrtod_kOS-63" value="" style="shape=tableRow;horizontal=0;startSize=0;swimlaneHead=0;swimlaneBody=0;fillColor=none;collapsible=0;dropTarget=0;points=[[0,0.5],[1,0.5]];portConstraint=eastwest;top=0;left=0;right=0;bottom=0;" vertex="1" parent="V0Jxzfw6lnCyrtod_kOS-47">
          <mxGeometry y="180" width="180" height="30" as="geometry" />
        </mxCell>
        <mxCell id="V0Jxzfw6lnCyrtod_kOS-64" value="" style="shape=partialRectangle;connectable=0;fillColor=none;top=0;left=0;bottom=0;right=0;editable=1;overflow=hidden;whiteSpace=wrap;html=1;" vertex="1" parent="V0Jxzfw6lnCyrtod_kOS-63">
          <mxGeometry width="30" height="30" as="geometry">
            <mxRectangle width="30" height="30" as="alternateBounds" />
          </mxGeometry>
        </mxCell>
        <mxCell id="V0Jxzfw6lnCyrtod_kOS-65" value="isInProdution" style="shape=partialRectangle;connectable=0;fillColor=none;top=0;left=0;bottom=0;right=0;align=left;spacingLeft=6;overflow=hidden;whiteSpace=wrap;html=1;" vertex="1" parent="V0Jxzfw6lnCyrtod_kOS-63">
          <mxGeometry x="30" width="150" height="30" as="geometry">
            <mxRectangle width="150" height="30" as="alternateBounds" />
          </mxGeometry>
        </mxCell>
        <mxCell id="V0Jxzfw6lnCyrtod_kOS-85" value="Empresa" style="shape=table;startSize=30;container=1;collapsible=1;childLayout=tableLayout;fixedRows=1;rowLines=0;fontStyle=1;align=center;resizeLast=1;html=1;fillColor=#dae8fc;strokeColor=#6c8ebf;" vertex="1" parent="B8F3qWkasefJEqzQDRZw-1">
          <mxGeometry x="3020" y="3560" width="180" height="120" as="geometry" />
        </mxCell>
        <mxCell id="V0Jxzfw6lnCyrtod_kOS-86" value="" style="shape=tableRow;horizontal=0;startSize=0;swimlaneHead=0;swimlaneBody=0;fillColor=none;collapsible=0;dropTarget=0;points=[[0,0.5],[1,0.5]];portConstraint=eastwest;top=0;left=0;right=0;bottom=1;" vertex="1" parent="V0Jxzfw6lnCyrtod_kOS-85">
          <mxGeometry y="30" width="180" height="30" as="geometry" />
        </mxCell>
        <mxCell id="V0Jxzfw6lnCyrtod_kOS-87" value="PK" style="shape=partialRectangle;connectable=0;fillColor=none;top=0;left=0;bottom=0;right=0;fontStyle=1;overflow=hidden;whiteSpace=wrap;html=1;" vertex="1" parent="V0Jxzfw6lnCyrtod_kOS-86">
          <mxGeometry width="30" height="30" as="geometry">
            <mxRectangle width="30" height="30" as="alternateBounds" />
          </mxGeometry>
        </mxCell>
        <mxCell id="V0Jxzfw6lnCyrtod_kOS-88" value="id" style="shape=partialRectangle;connectable=0;fillColor=none;top=0;left=0;bottom=0;right=0;align=left;spacingLeft=6;fontStyle=5;overflow=hidden;whiteSpace=wrap;html=1;" vertex="1" parent="V0Jxzfw6lnCyrtod_kOS-86">
          <mxGeometry x="30" width="150" height="30" as="geometry">
            <mxRectangle width="150" height="30" as="alternateBounds" />
          </mxGeometry>
        </mxCell>
        <mxCell id="V0Jxzfw6lnCyrtod_kOS-95" value="" style="shape=tableRow;horizontal=0;startSize=0;swimlaneHead=0;swimlaneBody=0;fillColor=none;collapsible=0;dropTarget=0;points=[[0,0.5],[1,0.5]];portConstraint=eastwest;top=0;left=0;right=0;bottom=0;" vertex="1" parent="V0Jxzfw6lnCyrtod_kOS-85">
          <mxGeometry y="60" width="180" height="30" as="geometry" />
        </mxCell>
        <mxCell id="V0Jxzfw6lnCyrtod_kOS-96" value="" style="shape=partialRectangle;connectable=0;fillColor=none;top=0;left=0;bottom=0;right=0;editable=1;overflow=hidden;whiteSpace=wrap;html=1;" vertex="1" parent="V0Jxzfw6lnCyrtod_kOS-95">
          <mxGeometry width="30" height="30" as="geometry">
            <mxRectangle width="30" height="30" as="alternateBounds" />
          </mxGeometry>
        </mxCell>
        <mxCell id="V0Jxzfw6lnCyrtod_kOS-97" value="NIF" style="shape=partialRectangle;connectable=0;fillColor=none;top=0;left=0;bottom=0;right=0;align=left;spacingLeft=6;overflow=hidden;whiteSpace=wrap;html=1;" vertex="1" parent="V0Jxzfw6lnCyrtod_kOS-95">
          <mxGeometry x="30" width="150" height="30" as="geometry">
            <mxRectangle width="150" height="30" as="alternateBounds" />
          </mxGeometry>
        </mxCell>
        <mxCell id="V0Jxzfw6lnCyrtod_kOS-98" value="" style="shape=tableRow;horizontal=0;startSize=0;swimlaneHead=0;swimlaneBody=0;fillColor=none;collapsible=0;dropTarget=0;points=[[0,0.5],[1,0.5]];portConstraint=eastwest;top=0;left=0;right=0;bottom=0;" vertex="1" parent="V0Jxzfw6lnCyrtod_kOS-85">
          <mxGeometry y="90" width="180" height="30" as="geometry" />
        </mxCell>
        <mxCell id="V0Jxzfw6lnCyrtod_kOS-99" value="" style="shape=partialRectangle;connectable=0;fillColor=none;top=0;left=0;bottom=0;right=0;editable=1;overflow=hidden;whiteSpace=wrap;html=1;" vertex="1" parent="V0Jxzfw6lnCyrtod_kOS-98">
          <mxGeometry width="30" height="30" as="geometry">
            <mxRectangle width="30" height="30" as="alternateBounds" />
          </mxGeometry>
        </mxCell>
        <mxCell id="V0Jxzfw6lnCyrtod_kOS-100" value="Nome" style="shape=partialRectangle;connectable=0;fillColor=none;top=0;left=0;bottom=0;right=0;align=left;spacingLeft=6;overflow=hidden;whiteSpace=wrap;html=1;" vertex="1" parent="V0Jxzfw6lnCyrtod_kOS-98">
          <mxGeometry x="30" width="150" height="30" as="geometry">
            <mxRectangle width="150" height="30" as="alternateBounds" />
          </mxGeometry>
        </mxCell>
        <mxCell id="V0Jxzfw6lnCyrtod_kOS-104" value="VendaProdutos" style="shape=table;startSize=30;container=1;collapsible=1;childLayout=tableLayout;fixedRows=1;rowLines=0;fontStyle=1;align=center;resizeLast=1;html=1;fillColor=#dae8fc;strokeColor=#6c8ebf;" vertex="1" parent="B8F3qWkasefJEqzQDRZw-1">
          <mxGeometry x="3010" y="3800" width="180" height="210" as="geometry" />
        </mxCell>
        <mxCell id="V0Jxzfw6lnCyrtod_kOS-105" value="" style="shape=tableRow;horizontal=0;startSize=0;swimlaneHead=0;swimlaneBody=0;fillColor=none;collapsible=0;dropTarget=0;points=[[0,0.5],[1,0.5]];portConstraint=eastwest;top=0;left=0;right=0;bottom=1;" vertex="1" parent="V0Jxzfw6lnCyrtod_kOS-104">
          <mxGeometry y="30" width="180" height="30" as="geometry" />
        </mxCell>
        <mxCell id="V0Jxzfw6lnCyrtod_kOS-106" value="PK" style="shape=partialRectangle;connectable=0;fillColor=none;top=0;left=0;bottom=0;right=0;fontStyle=1;overflow=hidden;whiteSpace=wrap;html=1;" vertex="1" parent="V0Jxzfw6lnCyrtod_kOS-105">
          <mxGeometry width="30" height="30" as="geometry">
            <mxRectangle width="30" height="30" as="alternateBounds" />
          </mxGeometry>
        </mxCell>
        <mxCell id="V0Jxzfw6lnCyrtod_kOS-107" value="id" style="shape=partialRectangle;connectable=0;fillColor=none;top=0;left=0;bottom=0;right=0;align=left;spacingLeft=6;fontStyle=5;overflow=hidden;whiteSpace=wrap;html=1;" vertex="1" parent="V0Jxzfw6lnCyrtod_kOS-105">
          <mxGeometry x="30" width="150" height="30" as="geometry">
            <mxRectangle width="150" height="30" as="alternateBounds" />
          </mxGeometry>
        </mxCell>
        <mxCell id="V0Jxzfw6lnCyrtod_kOS-108" value="" style="shape=tableRow;horizontal=0;startSize=0;swimlaneHead=0;swimlaneBody=0;fillColor=none;collapsible=0;dropTarget=0;points=[[0,0.5],[1,0.5]];portConstraint=eastwest;top=0;left=0;right=0;bottom=0;" vertex="1" parent="V0Jxzfw6lnCyrtod_kOS-104">
          <mxGeometry y="60" width="180" height="30" as="geometry" />
        </mxCell>
        <mxCell id="V0Jxzfw6lnCyrtod_kOS-109" value="FK" style="shape=partialRectangle;connectable=0;fillColor=none;top=0;left=0;bottom=0;right=0;editable=1;overflow=hidden;whiteSpace=wrap;html=1;" vertex="1" parent="V0Jxzfw6lnCyrtod_kOS-108">
          <mxGeometry width="30" height="30" as="geometry">
            <mxRectangle width="30" height="30" as="alternateBounds" />
          </mxGeometry>
        </mxCell>
        <mxCell id="V0Jxzfw6lnCyrtod_kOS-110" value="idEmpresa" style="shape=partialRectangle;connectable=0;fillColor=none;top=0;left=0;bottom=0;right=0;align=left;spacingLeft=6;overflow=hidden;whiteSpace=wrap;html=1;" vertex="1" parent="V0Jxzfw6lnCyrtod_kOS-108">
          <mxGeometry x="30" width="150" height="30" as="geometry">
            <mxRectangle width="150" height="30" as="alternateBounds" />
          </mxGeometry>
        </mxCell>
        <mxCell id="V0Jxzfw6lnCyrtod_kOS-111" value="" style="shape=tableRow;horizontal=0;startSize=0;swimlaneHead=0;swimlaneBody=0;fillColor=none;collapsible=0;dropTarget=0;points=[[0,0.5],[1,0.5]];portConstraint=eastwest;top=0;left=0;right=0;bottom=0;" vertex="1" parent="V0Jxzfw6lnCyrtod_kOS-104">
          <mxGeometry y="90" width="180" height="30" as="geometry" />
        </mxCell>
        <mxCell id="V0Jxzfw6lnCyrtod_kOS-112" value="FK" style="shape=partialRectangle;connectable=0;fillColor=none;top=0;left=0;bottom=0;right=0;editable=1;overflow=hidden;whiteSpace=wrap;html=1;" vertex="1" parent="V0Jxzfw6lnCyrtod_kOS-111">
          <mxGeometry width="30" height="30" as="geometry">
            <mxRectangle width="30" height="30" as="alternateBounds" />
          </mxGeometry>
        </mxCell>
        <mxCell id="V0Jxzfw6lnCyrtod_kOS-113" value="idStock" style="shape=partialRectangle;connectable=0;fillColor=none;top=0;left=0;bottom=0;right=0;align=left;spacingLeft=6;overflow=hidden;whiteSpace=wrap;html=1;" vertex="1" parent="V0Jxzfw6lnCyrtod_kOS-111">
          <mxGeometry x="30" width="150" height="30" as="geometry">
            <mxRectangle width="150" height="30" as="alternateBounds" />
          </mxGeometry>
        </mxCell>
        <mxCell id="V0Jxzfw6lnCyrtod_kOS-114" value="" style="shape=tableRow;horizontal=0;startSize=0;swimlaneHead=0;swimlaneBody=0;fillColor=none;collapsible=0;dropTarget=0;points=[[0,0.5],[1,0.5]];portConstraint=eastwest;top=0;left=0;right=0;bottom=0;" vertex="1" parent="V0Jxzfw6lnCyrtod_kOS-104">
          <mxGeometry y="120" width="180" height="30" as="geometry" />
        </mxCell>
        <mxCell id="V0Jxzfw6lnCyrtod_kOS-115" value="" style="shape=partialRectangle;connectable=0;fillColor=none;top=0;left=0;bottom=0;right=0;editable=1;overflow=hidden;whiteSpace=wrap;html=1;" vertex="1" parent="V0Jxzfw6lnCyrtod_kOS-114">
          <mxGeometry width="30" height="30" as="geometry">
            <mxRectangle width="30" height="30" as="alternateBounds" />
          </mxGeometry>
        </mxCell>
        <mxCell id="V0Jxzfw6lnCyrtod_kOS-116" value="quantidade" style="shape=partialRectangle;connectable=0;fillColor=none;top=0;left=0;bottom=0;right=0;align=left;spacingLeft=6;overflow=hidden;whiteSpace=wrap;html=1;" vertex="1" parent="V0Jxzfw6lnCyrtod_kOS-114">
          <mxGeometry x="30" width="150" height="30" as="geometry">
            <mxRectangle width="150" height="30" as="alternateBounds" />
          </mxGeometry>
        </mxCell>
        <mxCell id="V0Jxzfw6lnCyrtod_kOS-117" value="" style="shape=tableRow;horizontal=0;startSize=0;swimlaneHead=0;swimlaneBody=0;fillColor=none;collapsible=0;dropTarget=0;points=[[0,0.5],[1,0.5]];portConstraint=eastwest;top=0;left=0;right=0;bottom=0;" vertex="1" parent="V0Jxzfw6lnCyrtod_kOS-104">
          <mxGeometry y="150" width="180" height="30" as="geometry" />
        </mxCell>
        <mxCell id="V0Jxzfw6lnCyrtod_kOS-118" value="" style="shape=partialRectangle;connectable=0;fillColor=none;top=0;left=0;bottom=0;right=0;editable=1;overflow=hidden;whiteSpace=wrap;html=1;" vertex="1" parent="V0Jxzfw6lnCyrtod_kOS-117">
          <mxGeometry width="30" height="30" as="geometry">
            <mxRectangle width="30" height="30" as="alternateBounds" />
          </mxGeometry>
        </mxCell>
        <mxCell id="V0Jxzfw6lnCyrtod_kOS-119" value="valorVenda" style="shape=partialRectangle;connectable=0;fillColor=none;top=0;left=0;bottom=0;right=0;align=left;spacingLeft=6;overflow=hidden;whiteSpace=wrap;html=1;" vertex="1" parent="V0Jxzfw6lnCyrtod_kOS-117">
          <mxGeometry x="30" width="150" height="30" as="geometry">
            <mxRectangle width="150" height="30" as="alternateBounds" />
          </mxGeometry>
        </mxCell>
        <mxCell id="V0Jxzfw6lnCyrtod_kOS-120" value="" style="shape=tableRow;horizontal=0;startSize=0;swimlaneHead=0;swimlaneBody=0;fillColor=none;collapsible=0;dropTarget=0;points=[[0,0.5],[1,0.5]];portConstraint=eastwest;top=0;left=0;right=0;bottom=0;" vertex="1" parent="V0Jxzfw6lnCyrtod_kOS-104">
          <mxGeometry y="180" width="180" height="30" as="geometry" />
        </mxCell>
        <mxCell id="V0Jxzfw6lnCyrtod_kOS-121" value="" style="shape=partialRectangle;connectable=0;fillColor=none;top=0;left=0;bottom=0;right=0;editable=1;overflow=hidden;whiteSpace=wrap;html=1;" vertex="1" parent="V0Jxzfw6lnCyrtod_kOS-120">
          <mxGeometry width="30" height="30" as="geometry">
            <mxRectangle width="30" height="30" as="alternateBounds" />
          </mxGeometry>
        </mxCell>
        <mxCell id="V0Jxzfw6lnCyrtod_kOS-122" value="timestamp" style="shape=partialRectangle;connectable=0;fillColor=none;top=0;left=0;bottom=0;right=0;align=left;spacingLeft=6;overflow=hidden;whiteSpace=wrap;html=1;" vertex="1" parent="V0Jxzfw6lnCyrtod_kOS-120">
          <mxGeometry x="30" width="150" height="30" as="geometry">
            <mxRectangle width="150" height="30" as="alternateBounds" />
          </mxGeometry>
        </mxCell>
        <mxCell id="V0Jxzfw6lnCyrtod_kOS-125" style="edgeStyle=orthogonalEdgeStyle;rounded=0;orthogonalLoop=1;jettySize=auto;html=1;endArrow=ERoneToMany;endFill=0;startArrow=ERoneToMany;startFill=0;" edge="1" parent="B8F3qWkasefJEqzQDRZw-1" source="B8F3qWkasefJEqzQDRZw-123" target="V0Jxzfw6lnCyrtod_kOS-111">
          <mxGeometry relative="1" as="geometry">
            <Array as="points">
              <mxPoint x="2990" y="3795" />
              <mxPoint x="2990" y="3905" />
            </Array>
          </mxGeometry>
        </mxCell>
        <mxCell id="V0Jxzfw6lnCyrtod_kOS-126" style="edgeStyle=orthogonalEdgeStyle;rounded=0;orthogonalLoop=1;jettySize=auto;html=1;endArrow=ERmandOne;endFill=0;startArrow=ERzeroToMany;startFill=0;" edge="1" parent="B8F3qWkasefJEqzQDRZw-1" source="V0Jxzfw6lnCyrtod_kOS-86" target="V0Jxzfw6lnCyrtod_kOS-108">
          <mxGeometry relative="1" as="geometry" />
        </mxCell>
        <mxCell id="V0Jxzfw6lnCyrtod_kOS-130" style="edgeStyle=orthogonalEdgeStyle;rounded=0;orthogonalLoop=1;jettySize=auto;html=1;startArrow=ERzeroToMany;startFill=0;endArrow=ERzeroToMany;endFill=0;" edge="1" parent="B8F3qWkasefJEqzQDRZw-1" source="B8F3qWkasefJEqzQDRZw-75" target="V0Jxzfw6lnCyrtod_kOS-127">
          <mxGeometry relative="1" as="geometry" />
        </mxCell>
        <mxCell id="V0Jxzfw6lnCyrtod_kOS-131" style="edgeStyle=orthogonalEdgeStyle;rounded=0;orthogonalLoop=1;jettySize=auto;html=1;endArrow=ERzeroToMany;endFill=0;startArrow=ERzeroToOne;startFill=0;" edge="1" parent="B8F3qWkasefJEqzQDRZw-1" source="V0Jxzfw6lnCyrtod_kOS-16" target="V0Jxzfw6lnCyrtod_kOS-132">
          <mxGeometry relative="1" as="geometry" />
        </mxCell>
        <mxCell id="V0Jxzfw6lnCyrtod_kOS-135" value="FabricoProduto" style="shape=table;startSize=30;container=1;collapsible=1;childLayout=tableLayout;fixedRows=1;rowLines=0;fontStyle=1;align=center;resizeLast=1;html=1;fillColor=#dae8fc;strokeColor=#6c8ebf;" vertex="1" parent="B8F3qWkasefJEqzQDRZw-1">
          <mxGeometry x="2770" y="4060" width="180" height="150" as="geometry" />
        </mxCell>
        <mxCell id="V0Jxzfw6lnCyrtod_kOS-136" value="" style="shape=tableRow;horizontal=0;startSize=0;swimlaneHead=0;swimlaneBody=0;fillColor=none;collapsible=0;dropTarget=0;points=[[0,0.5],[1,0.5]];portConstraint=eastwest;top=0;left=0;right=0;bottom=1;" vertex="1" parent="V0Jxzfw6lnCyrtod_kOS-135">
          <mxGeometry y="30" width="180" height="30" as="geometry" />
        </mxCell>
        <mxCell id="V0Jxzfw6lnCyrtod_kOS-137" value="PK" style="shape=partialRectangle;connectable=0;fillColor=none;top=0;left=0;bottom=0;right=0;fontStyle=1;overflow=hidden;whiteSpace=wrap;html=1;" vertex="1" parent="V0Jxzfw6lnCyrtod_kOS-136">
          <mxGeometry width="30" height="30" as="geometry">
            <mxRectangle width="30" height="30" as="alternateBounds" />
          </mxGeometry>
        </mxCell>
        <mxCell id="V0Jxzfw6lnCyrtod_kOS-138" value="id" style="shape=partialRectangle;connectable=0;fillColor=none;top=0;left=0;bottom=0;right=0;align=left;spacingLeft=6;fontStyle=5;overflow=hidden;whiteSpace=wrap;html=1;" vertex="1" parent="V0Jxzfw6lnCyrtod_kOS-136">
          <mxGeometry x="30" width="150" height="30" as="geometry">
            <mxRectangle width="150" height="30" as="alternateBounds" />
          </mxGeometry>
        </mxCell>
        <mxCell id="V0Jxzfw6lnCyrtod_kOS-139" value="" style="shape=tableRow;horizontal=0;startSize=0;swimlaneHead=0;swimlaneBody=0;fillColor=none;collapsible=0;dropTarget=0;points=[[0,0.5],[1,0.5]];portConstraint=eastwest;top=0;left=0;right=0;bottom=0;" vertex="1" parent="V0Jxzfw6lnCyrtod_kOS-135">
          <mxGeometry y="60" width="180" height="30" as="geometry" />
        </mxCell>
        <mxCell id="V0Jxzfw6lnCyrtod_kOS-140" value="FK" style="shape=partialRectangle;connectable=0;fillColor=none;top=0;left=0;bottom=0;right=0;editable=1;overflow=hidden;whiteSpace=wrap;html=1;" vertex="1" parent="V0Jxzfw6lnCyrtod_kOS-139">
          <mxGeometry width="30" height="30" as="geometry">
            <mxRectangle width="30" height="30" as="alternateBounds" />
          </mxGeometry>
        </mxCell>
        <mxCell id="V0Jxzfw6lnCyrtod_kOS-141" value="idCompraProdutos" style="shape=partialRectangle;connectable=0;fillColor=none;top=0;left=0;bottom=0;right=0;align=left;spacingLeft=6;overflow=hidden;whiteSpace=wrap;html=1;" vertex="1" parent="V0Jxzfw6lnCyrtod_kOS-139">
          <mxGeometry x="30" width="150" height="30" as="geometry">
            <mxRectangle width="150" height="30" as="alternateBounds" />
          </mxGeometry>
        </mxCell>
        <mxCell id="V0Jxzfw6lnCyrtod_kOS-153" value="" style="shape=tableRow;horizontal=0;startSize=0;swimlaneHead=0;swimlaneBody=0;fillColor=none;collapsible=0;dropTarget=0;points=[[0,0.5],[1,0.5]];portConstraint=eastwest;top=0;left=0;right=0;bottom=0;" vertex="1" parent="V0Jxzfw6lnCyrtod_kOS-135">
          <mxGeometry y="90" width="180" height="30" as="geometry" />
        </mxCell>
        <mxCell id="V0Jxzfw6lnCyrtod_kOS-154" value="FK" style="shape=partialRectangle;connectable=0;fillColor=none;top=0;left=0;bottom=0;right=0;editable=1;overflow=hidden;whiteSpace=wrap;html=1;" vertex="1" parent="V0Jxzfw6lnCyrtod_kOS-153">
          <mxGeometry width="30" height="30" as="geometry">
            <mxRectangle width="30" height="30" as="alternateBounds" />
          </mxGeometry>
        </mxCell>
        <mxCell id="V0Jxzfw6lnCyrtod_kOS-155" value="idProduto" style="shape=partialRectangle;connectable=0;fillColor=none;top=0;left=0;bottom=0;right=0;align=left;spacingLeft=6;overflow=hidden;whiteSpace=wrap;html=1;" vertex="1" parent="V0Jxzfw6lnCyrtod_kOS-153">
          <mxGeometry x="30" width="150" height="30" as="geometry">
            <mxRectangle width="150" height="30" as="alternateBounds" />
          </mxGeometry>
        </mxCell>
        <mxCell id="V0Jxzfw6lnCyrtod_kOS-142" value="" style="shape=tableRow;horizontal=0;startSize=0;swimlaneHead=0;swimlaneBody=0;fillColor=none;collapsible=0;dropTarget=0;points=[[0,0.5],[1,0.5]];portConstraint=eastwest;top=0;left=0;right=0;bottom=0;" vertex="1" parent="V0Jxzfw6lnCyrtod_kOS-135">
          <mxGeometry y="120" width="180" height="30" as="geometry" />
        </mxCell>
        <mxCell id="V0Jxzfw6lnCyrtod_kOS-143" value="" style="shape=partialRectangle;connectable=0;fillColor=none;top=0;left=0;bottom=0;right=0;editable=1;overflow=hidden;whiteSpace=wrap;html=1;" vertex="1" parent="V0Jxzfw6lnCyrtod_kOS-142">
          <mxGeometry width="30" height="30" as="geometry">
            <mxRectangle width="30" height="30" as="alternateBounds" />
          </mxGeometry>
        </mxCell>
        <mxCell id="V0Jxzfw6lnCyrtod_kOS-144" value="quantidade" style="shape=partialRectangle;connectable=0;fillColor=none;top=0;left=0;bottom=0;right=0;align=left;spacingLeft=6;overflow=hidden;whiteSpace=wrap;html=1;" vertex="1" parent="V0Jxzfw6lnCyrtod_kOS-142">
          <mxGeometry x="30" width="150" height="30" as="geometry">
            <mxRectangle width="150" height="30" as="alternateBounds" />
          </mxGeometry>
        </mxCell>
        <mxCell id="V0Jxzfw6lnCyrtod_kOS-151" style="edgeStyle=orthogonalEdgeStyle;rounded=0;orthogonalLoop=1;jettySize=auto;html=1;startArrow=ERzeroToOne;startFill=0;endArrow=ERzeroToOne;endFill=0;" edge="1" parent="B8F3qWkasefJEqzQDRZw-1" source="V0Jxzfw6lnCyrtod_kOS-48" target="B8F3qWkasefJEqzQDRZw-126">
          <mxGeometry relative="1" as="geometry" />
        </mxCell>
        <mxCell id="V0Jxzfw6lnCyrtod_kOS-152" style="edgeStyle=orthogonalEdgeStyle;rounded=0;orthogonalLoop=1;jettySize=auto;html=1;" edge="1" parent="B8F3qWkasefJEqzQDRZw-1" source="B8F3qWkasefJEqzQDRZw-44" target="V0Jxzfw6lnCyrtod_kOS-139">
          <mxGeometry relative="1" as="geometry" />
        </mxCell>
        <mxCell id="V0Jxzfw6lnCyrtod_kOS-159" style="edgeStyle=orthogonalEdgeStyle;rounded=0;orthogonalLoop=1;jettySize=auto;html=1;startArrow=ERzeroToMany;startFill=0;endArrow=ERzeroToMany;endFill=0;" edge="1" parent="B8F3qWkasefJEqzQDRZw-1" source="V0Jxzfw6lnCyrtod_kOS-48" target="V0Jxzfw6lnCyrtod_kOS-153">
          <mxGeometry relative="1" as="geometry">
            <Array as="points">
              <mxPoint x="2950" y="3865" />
              <mxPoint x="2950" y="4015" />
              <mxPoint x="2980" y="4015" />
              <mxPoint x="2980" y="4165" />
            </Array>
          </mxGeometry>
        </mxCell>
      </root>
    </mxGraphModel>
  </diagram>
</mxfile>
